<?xml version="1.0" encoding="UTF-8"?>
<svg version="1.1" xmlns="http://www.w3.org/2000/svg" width="727" height="636">
<path d="M0 0 C239.91 0 479.82 0 727 0 C727 209.88 727 419.76 727 636 C487.09 636 247.18 636 0 636 C0 426.12 0 216.24 0 0 Z " fill="#EEEDEB" transform="translate(0,0)"/>
<path d="M0 0 C1.46533173 -0.00855011 1.46533173 -0.00855011 2.96026611 -0.01727295 C5.02086324 -0.02666334 7.08147497 -0.033233 9.14208984 -0.03710938 C12.2161058 -0.04672018 15.28942425 -0.07776214 18.36328125 -0.109375 C36.09203757 -0.20452819 53.30640037 1.77876376 70.640625 5.515625 C71.62869141 5.72582275 72.61675781 5.93602051 73.63476562 6.15258789 C83.43129984 8.30088176 93.00523394 11.02747057 102.515625 14.203125 C103.19995605 14.43080566 103.88428711 14.65848633 104.58935547 14.89306641 C145.88308973 28.90144514 184.26952327 56.30630355 210.22558594 91.46875 C211.53021255 93.22273703 212.86682884 94.94801457 214.2109375 96.671875 C250.07752474 143.27155767 264.14676579 201.81999299 264.890625 259.703125 C264.91680908 260.92644531 264.94299316 262.14976562 264.9699707 263.41015625 C264.98295383 270.32679638 264.4904181 275.44548206 260.515625 281.203125 C259.896875 282.10417969 259.278125 283.00523437 258.640625 283.93359375 C241.43971063 302.30442325 209.35899678 307.91346154 185.76269531 312.73974609 C183.54875809 313.19629247 181.34122846 313.67770681 179.1328125 314.16015625 C152.78321696 319.71621224 125.37061078 322.54536234 98.515625 324.203125 C97.2152832 324.29190918 95.91494141 324.38069336 94.57519531 324.47216797 C43.03786632 327.94644949 -9.70424457 328.02640188 -61.23303223 324.36132812 C-63.5504311 324.1984832 -65.86832458 324.04553374 -68.18652344 323.89453125 C-91.11108482 322.38460773 -113.7871174 319.74265171 -136.484375 316.203125 C-137.74072754 316.00992676 -138.99708008 315.81672852 -140.29150391 315.61767578 C-213.85914075 304.09264186 -213.85914075 304.09264186 -233.21484375 281.2578125 C-236.31394262 276.24204018 -236.80048135 271.16485776 -236.8203125 265.39453125 C-236.83281288 264.26821289 -236.83281288 264.26821289 -236.8455658 263.11914062 C-236.86506481 260.66776386 -236.86499396 258.21706736 -236.859375 255.765625 C-236.85916351 254.92321259 -236.85895203 254.08080017 -236.85873413 253.21286011 C-236.81732287 236.60615838 -235.33446602 220.57768245 -232.484375 204.203125 C-232.30245605 203.15640625 -232.12053711 202.1096875 -231.93310547 201.03125 C-222.99727229 151.71247812 -198.76377762 107.36190494 -164.484375 71.203125 C-163.96246582 70.6472168 -163.44055664 70.09130859 -162.90283203 69.51855469 C-153.87398961 59.95796878 -144.16463333 51.85947008 -133.484375 44.203125 C-132.57099365 43.53869385 -132.57099365 43.53869385 -131.63916016 42.86083984 C-94.58767156 16.10771229 -45.66621201 0.2138719 0 0 Z " fill="#EEEDEB" transform="translate(346.484375,134.796875)"/>
<path d="M0 0 C8.94614225 6.47663423 14.54357245 14.9546195 17.25 25.62890625 C17.65847036 28.7684055 17.72700766 31.84070302 17.6875 35.00390625 C17.68282715 35.82955078 17.6781543 36.65519531 17.67333984 37.50585938 C17.48202725 45.4383328 15.67211741 51.99573014 11.25 58.62890625 C12.07798096 58.76876953 12.90596191 58.90863281 13.7590332 59.05273438 C69.37237275 68.59061187 119.22218056 89.11023671 160.25 128.62890625 C161.16531494 129.50337402 161.16531494 129.50337402 162.09912109 130.39550781 C170.45888847 138.41593309 178.04608655 146.66448778 184.97802734 155.94677734 C186.23582343 157.61015835 187.52626577 159.24127974 188.83203125 160.8671875 C226.44673148 207.93408165 244.40238379 272.02505589 243.25 331.62890625 C243.92289063 331.73074219 244.59578125 331.83257812 245.2890625 331.9375 C248.9270414 332.78700167 252.22492478 334.17980256 255.625 335.69140625 C256.32399414 336.00158691 257.02298828 336.31176758 257.74316406 336.63134766 C278.36895459 345.9236235 299.6640057 357.87962494 308.125 380.12890625 C311.0617446 389.99914845 309.2640731 400.04003493 304.6875 409.06640625 C290.03707641 434.43924131 258.31268319 449.10096709 231.28125 457.0546875 C230.59585144 457.26007645 229.91045288 457.46546539 229.20428467 457.67707825 C225.83841769 458.68267582 222.4712308 459.6439513 219.07128906 460.52758789 C210.06457463 463.13697172 205.46468798 466.60302474 199.6809082 473.68969727 C178.31190401 499.52694157 139.42366123 511.38699096 108.25 519.62890625 C107.02603516 519.95737549 107.02603516 519.95737549 105.77734375 520.29248047 C69.2936498 529.96241621 29.96437931 534.14920581 -7.75 534.62890625 C-8.45560059 534.63879578 -9.16120117 534.6486853 -9.88818359 534.65887451 C-78.61127163 535.59280548 -152.92843726 531.2201498 -215.75 500.62890625 C-216.4620459 500.28778809 -217.1740918 499.94666992 -217.90771484 499.59521484 C-234.11558372 491.75246198 -251.5127576 480.87174037 -261.75 465.62890625 C-261.75 464.96890625 -261.75 464.30890625 -261.75 463.62890625 C-262.30872803 463.53528809 -262.86745605 463.44166992 -263.44311523 463.34521484 C-295.96264898 457.41354725 -336.38832202 441.90750244 -356.75 414.62890625 C-363.64679271 403.87058413 -365.8668034 392.31328179 -363.125 379.76953125 C-355.73334631 359.04650216 -335.33502843 347.42843793 -316.60546875 338.42578125 C-302.15669785 331.62890625 -302.15669785 331.62890625 -297.75 331.62890625 C-297.76571045 330.9011499 -297.7814209 330.17339355 -297.79760742 329.42358398 C-298.10553023 312.86721105 -297.5677212 296.95402503 -294.75 280.62890625 C-294.59966309 279.70819336 -294.44932617 278.78748047 -294.29443359 277.83886719 C-285.93523236 227.85726726 -262.23770783 179.21495326 -227.9140625 141.98046875 C-226.47038883 140.41171144 -225.04827663 138.82283739 -223.6484375 137.21484375 C-186.80973422 95.01778363 -127.09262106 64.01720523 -71.25 59.81640625 C-69.41737859 59.73568364 -67.58405447 59.66442491 -65.75 59.62890625 C-66.08773438 58.98824219 -66.42546875 58.34757812 -66.7734375 57.6875 C-67.21945312 56.82253906 -67.66546875 55.95757812 -68.125 55.06640625 C-68.56585938 54.21949219 -69.00671875 53.37257812 -69.4609375 52.5 C-73.88315028 42.65052608 -74.29816025 31.72376868 -71.25 21.37890625 C-66.65543371 9.46825356 -58.44166614 0.82236088 -46.96484375 -4.71484375 C-44.57679698 -5.6996053 -42.21276606 -6.5940713 -39.75 -7.37109375 C-39.15058594 -7.561875 -38.55117188 -7.75265625 -37.93359375 -7.94921875 C-24.34070514 -10.57539401 -11.54465874 -7.38192121 0 0 Z M-73.75 80.62890625 C-74.61482498 80.77391068 -75.47964996 80.9189151 -76.37068176 81.0683136 C-122.62340327 88.9498192 -165.94698404 110.07017309 -199.75 142.62890625 C-200.32427734 143.18126953 -200.89855469 143.73363281 -201.49023438 144.30273438 C-209.11152254 151.67684563 -216.31221083 159.17788619 -222.75 167.62890625 C-223.1840918 168.19722168 -223.61818359 168.76553711 -224.06542969 169.35107422 C-230.06373704 177.24457805 -235.72071604 185.26920381 -240.71240234 193.84765625 C-241.43523125 195.08854089 -242.16529183 196.32522926 -242.90087891 197.55859375 C-267.28076449 238.56157491 -278.03414685 285.66204062 -278.1875 333.06640625 C-278.1936734 333.88827423 -278.1998468 334.71014221 -278.20620728 335.55691528 C-278.21765301 337.91346497 -278.20538839 340.2685454 -278.18359375 342.625 C-278.18634308 343.31649139 -278.18909241 344.00798279 -278.19192505 344.72042847 C-278.07366047 350.97815889 -276.51522146 357.58742005 -271.9375 362.12890625 C-234.4435329 396.49837609 -158.92737663 397.91798524 -110.875 401.31640625 C-110.01667572 401.3774353 -109.15835144 401.43846436 -108.27401733 401.50134277 C-80.61034842 403.43244024 -52.96854507 403.83383021 -25.25 403.81640625 C-24.40521843 403.81628666 -23.56043686 403.81616707 -22.69005585 403.81604385 C14.46548767 403.80940029 51.30113713 402.79492043 88.25 398.62890625 C89.58405877 398.48501822 90.91820824 398.34196886 92.25244141 398.19970703 C158.50682061 391.9388115 158.50682061 391.9388115 216.25 362.62890625 C218.03963818 360.416276 218.03963818 360.416276 219.5 358.06640625 C220.00015625 357.30199219 220.5003125 356.53757812 221.015625 355.75 C234.42868459 332.70160964 219.46678746 280.42042456 213.26831055 256.62792969 C205.59868069 228.79335464 192.79196782 202.25614736 176.25 178.62890625 C175.78126465 177.95811035 175.3125293 177.28731445 174.82958984 176.59619141 C167.44289552 166.14483135 159.17508922 156.78331702 150.25 147.62890625 C149.26817037 146.60682731 148.28639626 145.58469504 147.3046875 144.5625 C109.0220411 105.35278097 56.72653201 85.54106146 3.25 78.62890625 C2.05181641 78.45617187 0.85363281 78.2834375 -0.38085938 78.10546875 C-5.2655241 77.500537 -10.12197341 77.4485508 -15.0390625 77.42578125 C-16.01878021 77.42008118 -16.99849792 77.4143811 -18.00790405 77.4085083 C-20.08045386 77.39909705 -22.15301837 77.39253981 -24.22558594 77.38867188 C-27.31734374 77.37908503 -30.40840117 77.34807436 -33.5 77.31640625 C-47.15130773 77.2441457 -60.29084979 78.36785468 -73.75 80.62890625 Z " fill="#162D46" transform="translate(387.75,57.37109375)"/>
<path d="M0 0 C0.01417969 0.96679688 0.02835938 1.93359375 0.04296875 2.9296875 C0.41642803 13.12411653 1.93751283 20.78950429 9 28.625 C39.83427253 56.75797943 92.26584213 62.14562727 132 68 C133.89192914 68.28904906 135.7838564 68.57811036 137.67578125 68.8671875 C180.358249 75.20742571 223.65187233 76.36790349 266.7277832 76.31567383 C270.85159253 76.3110569 274.97510577 76.31793849 279.09887695 76.33618164 C354.09164461 76.66431457 451.0025436 76.87808602 518 38 C519.03898438 37.41605469 520.07796875 36.83210938 521.1484375 36.23046875 C529.72381442 31.13812026 535.82366894 25.3014026 539.2890625 15.80859375 C540.6038815 10.61433629 540.83265231 5.33839135 541 0 C558.15867992 6.46700247 576.85084776 15.46594497 586.13671875 32.02734375 C587.99266441 36.26830555 587.27432443 40.16178647 585.875 44.4375 C575.92528214 64.83669324 550.08441127 75.04029598 529.82666016 82.03662109 C528.8938623 82.35453613 527.96106445 82.67245117 527 83 C526.06849121 83.32178223 525.13698242 83.64356445 524.17724609 83.97509766 C471.0641566 102.05710595 413.60956897 109.01174023 357.875 112.8125 C357.03490387 112.86980286 356.19480774 112.92710571 355.32925415 112.98614502 C350.39530407 113.31512784 345.46022175 113.60598924 340.52218628 113.86639404 C338.85152592 113.95489273 337.18104478 114.04684793 335.51077271 114.14239502 C313.7592568 115.36732532 291.96590757 115.24417787 270.1875 115.25 C269.17793747 115.25058914 268.16837494 115.25117828 267.1282196 115.25178528 C235.31632196 115.26487341 203.70905179 114.79220367 172 112 C170.27785159 111.85377335 168.55568372 111.70777579 166.83349609 111.56201172 C20.25316818 98.95239445 20.25316818 98.95239445 -29 63 C-30.32064453 62.04480469 -30.32064453 62.04480469 -31.66796875 61.0703125 C-39.41713517 55.18689811 -45.9448561 48.72654238 -47.5 38.8125 C-46.39645853 30.39799631 -40.4942181 23.20686867 -34 18 C-9.07948244 0 -9.07948244 0 0 0 Z " fill="#EEEDEB" transform="translate(90,410)"/>
<path d="M0 0 C-23.40425415 12.95286246 -46.96044967 21.89935357 -73 28 C-74.54204102 28.3727002 -74.54204102 28.3727002 -76.11523438 28.75292969 C-96.87479692 33.73143876 -117.80504741 36.65209985 -139 39 C-140.78422363 39.20133545 -140.78422363 39.20133545 -142.60449219 39.40673828 C-182.17650771 43.61740919 -223.48920241 42.54490835 -263 38 C-263.74840149 37.91514343 -264.49680298 37.83028687 -265.2678833 37.74285889 C-295.04029004 34.33855921 -324.74096305 29.24266915 -353 19 C-353.86012695 18.68949707 -354.72025391 18.37899414 -355.60644531 18.05908203 C-386.66961942 6.66076115 -386.66961942 6.66076115 -390 0 C-387.04107532 0.37067848 -384.08286305 0.74597607 -381.125 1.125 C-379.62018066 1.31751343 -379.62018066 1.31751343 -378.08496094 1.51391602 C-371.25566587 2.40324067 -364.44301193 3.37061896 -357.6328125 4.39453125 C-339.41528594 7.12031486 -321.22034454 9.55697523 -302.875 11.25 C-302.0555188 11.32676971 -301.2360376 11.40353943 -300.39172363 11.4826355 C-295.25008371 11.95848532 -290.10596426 12.38082465 -284.9571228 12.77087402 C-282.93323439 12.92769044 -280.90998294 13.09289111 -278.88735962 13.26525879 C-252.81661857 15.4629087 -226.72745756 15.30797265 -200.58276367 15.26074219 C-194.21383442 15.24934238 -187.84507218 15.25612492 -181.47614861 15.26762009 C-155.91609757 15.30684694 -130.47245298 15.31749543 -105 13 C-103.243453 12.85200639 -101.486864 12.70451005 -99.73022461 12.55761719 C-95.31398755 12.1747 -90.90693161 11.7272972 -86.5 11.25 C-85.7322525 11.16862793 -84.964505 11.08725586 -84.17349243 11.00341797 C-62.69792214 8.70906246 -41.39784005 5.2255419 -20.09765625 1.69140625 C-18.92565674 1.49869141 -17.75365723 1.30597656 -16.54614258 1.10742188 C-14.41840479 0.75566195 -12.29182368 0.39679748 -10.16674805 0.02929688 C-9.25062744 -0.12345703 -8.33450684 -0.27621094 -7.390625 -0.43359375 C-6.60719727 -0.56822021 -5.82376953 -0.70284668 -5.01660156 -0.84155273 C-3 -1 -3 -1 0 0 Z " fill="#B1B8C1" transform="translate(557,530)"/>
<path d="M0 0 C4.49765084 3.48504652 8.27536901 7.5217604 10 13 C10.8660651 20.34695673 10.5845294 26.42354761 6.875 32.90234375 C2.28541838 38.03693818 -1.694605 41.263924 -8.75 41.83203125 C-10.83319365 41.85701905 -12.91699188 41.84988072 -15 41.8125 C-16.0415625 41.84408203 -17.083125 41.87566406 -18.15625 41.90820312 C-24.92934409 41.87827152 -28.59638655 40.6494321 -33.43383789 35.86279297 C-38.14796605 30.25580967 -40.47358714 24.65927083 -40.3359375 17.28125 C-39.40070882 10.93039477 -36.18251777 5.53289874 -31.1875 1.5625 C-20.95271766 -5.20318945 -10.88745908 -6.13656785 0 0 Z " fill="#EEEDEC" transform="translate(375,73)"/>
<path d="M0 0 C-1 2 -1 2 -3.5 3.125 C-7.7556796 4.1889199 -11.64144777 4.17434209 -16 4 C-16 4.33 -16 4.66 -16 5 C-17.17369141 4.98259766 -17.17369141 4.98259766 -18.37109375 4.96484375 C-19.38300781 4.95582031 -20.39492188 4.94679688 -21.4375 4.9375 C-22.95150391 4.92009766 -22.95150391 4.92009766 -24.49609375 4.90234375 C-26.94021067 4.71387324 -26.94021067 4.71387324 -28 6 C-29.85287502 6.07226502 -31.70833878 6.0838122 -33.5625 6.0625 C-34.57441406 6.05347656 -35.58632813 6.04445313 -36.62890625 6.03515625 C-37.41136719 6.02355469 -38.19382812 6.01195312 -39 6 C-38.67 5.01 -38.34 4.02 -38 3 C-33.39211197 2.56983384 -28.78395837 2.14267725 -24.17553711 1.71826172 C-22.60905492 1.57357373 -21.04264737 1.42807522 -19.47631836 1.28173828 C-17.22008263 1.07108941 -14.96359126 0.86339256 -12.70703125 0.65625 C-12.01100296 0.59062866 -11.31497467 0.52500732 -10.59785461 0.45739746 C-7.05259084 0.13491642 -3.56008121 -0.07234712 0 0 Z " fill="#E5E7E8" transform="translate(440,587)"/>
<path d="M0 0 C-3.76225077 2.03712549 -7.53604956 4.05183781 -11.3125 6.0625 C-12.38435547 6.64322266 -13.45621094 7.22394531 -14.56054688 7.82226562 C-15.58857422 8.36689453 -16.61660156 8.91152344 -17.67578125 9.47265625 C-18.62364502 9.98062744 -19.57150879 10.48859863 -20.5480957 11.01196289 C-23 12 -23 12 -26 11 C-23.36 9.68 -20.72 8.36 -18 7 C-18 6.34 -18 5.68 -18 5 C-20.97 4.505 -20.97 4.505 -24 4 C-21.70845689 1.70845689 -20.86797121 1.60724993 -17.75390625 1.11328125 C-16.91666016 0.97986328 -16.07941406 0.84644531 -15.21679688 0.70898438 C-14.34087891 0.57814453 -13.46496094 0.44730469 -12.5625 0.3125 C-11.69044922 0.17005859 -10.81839844 0.02761719 -9.91992188 -0.11914062 C-3.3858817 -1.12862723 -3.3858817 -1.12862723 0 0 Z " fill="#CED3D8" transform="translate(557,530)"/>
<path d="M0 0 C16.17 0 32.34 0 49 0 C49 0.33 49 0.66 49 1 C51.31 1.33 53.62 1.66 56 2 C56 2.33 56 2.66 56 3 C46.43 3 36.86 3 27 3 C27 2.67 27 2.34 27 2 C18.09 1.67 9.18 1.34 0 1 C0 0.67 0 0.34 0 0 Z " fill="#A6AEB7" transform="translate(333,568)"/>
<path d="M0 0 C1.10677083 1.13932292 2.21354167 2.27864583 3.3203125 3.41796875 C3.87460937 3.94003906 4.42890625 4.46210937 5 5 C6.19882812 6.31291016 6.19882812 6.31291016 7.421875 7.65234375 C11.97726977 11.40966704 17.52322802 10.56955256 23.125 10.375 C24.20910156 10.36082031 25.29320312 10.34664062 26.41015625 10.33203125 C32.78028099 10.23520835 32.78028099 10.23520835 39 9 C39 9.99 39 10.98 39 12 C33.94392404 13.46492023 28.85109039 13.26374916 23.625 13.3125 C22.59632813 13.34150391 21.56765625 13.37050781 20.5078125 13.40039062 C14.44972295 13.45113493 10.75117085 13.15353929 6 9 C5.37351562 8.47277344 4.74703125 7.94554688 4.1015625 7.40234375 C2.67771961 5.9898012 1.33642227 4.49552016 0 3 C0 2.01 0 1.02 0 0 Z " fill="#091322" transform="translate(337,103)"/>
<path d="M0 0 C14.19 0 28.38 0 43 0 C40 3 40 3 37.82348633 3.34057617 C37.00130615 3.32486572 36.17912598 3.30915527 35.33203125 3.29296875 C34.43935547 3.28330078 33.54667969 3.27363281 32.62695312 3.26367188 C31.23379883 3.2259668 31.23379883 3.2259668 29.8125 3.1875 C28.87212891 3.17396484 27.93175781 3.16042969 26.96289062 3.14648438 C24.64134962 3.11113096 22.32096347 3.06178674 20 3 C20 2.34 20 1.68 20 1 C13.4 1 6.8 1 0 1 C0 0.67 0 0.34 0 0 Z " fill="#E5E6E7" transform="translate(362,458)"/>
<path d="M0 0 C1.67316284 0.02356567 1.67316284 0.02356567 3.38012695 0.04760742 C5.19287109 0.06210937 5.19287109 0.06210937 7.04223633 0.0769043 C8.93619141 0.11460937 8.93619141 0.11460937 10.8684082 0.15307617 C12.77976562 0.17337891 12.77976562 0.17337891 14.72973633 0.1940918 C17.88054878 0.22949418 21.03051865 0.27887827 24.1809082 0.34057617 C24.5109082 1.33057617 24.8409082 2.32057617 25.1809082 3.34057617 C14.9509082 3.34057617 4.7209082 3.34057617 -5.8190918 3.34057617 C-2.8190918 0.34057617 -2.8190918 0.34057617 0 0 Z " fill="#E4E5E6" transform="translate(318.819091796875,521.659423828125)"/>
<path d="M0 0 C2 2 2 2 2.1953125 4.3828125 C2.17210937 5.28773438 2.14890625 6.19265625 2.125 7.125 C2.10695313 8.03507812 2.08890625 8.94515625 2.0703125 9.8828125 C2.04710937 10.58148438 2.02390625 11.28015625 2 12 C2.66 12.33 3.32 12.66 4 13 C3.34 13.66 2.68 14.32 2 15 C1.3162955 16.32467746 0.65035814 17.65863633 0 19 C-0.66 19.99 -1.32 20.98 -2 22 C-2.99 22 -3.98 22 -5 22 C-5.268125 22.639375 -5.53625 23.27875 -5.8125 23.9375 C-7 26 -7 26 -10 27 C-10 26.34 -10 25.68 -10 25 C-8.33333333 23.33333333 -6.66666667 21.66666667 -5 20 C-1.10293315 14.695659 0.14811564 11.25678871 0.0625 4.75 C0.05347656 3.85796875 0.04445313 2.9659375 0.03515625 2.046875 C0.02355469 1.37140625 0.01195312 0.6959375 0 0 Z " fill="#111A28" transform="translate(676,441)"/>
<path d="M0 0 C0.66 0.33 1.32 0.66 2 1 C0.7934375 2.11375 0.7934375 2.11375 -0.4375 3.25 C-2.96838147 5.96606792 -3.22071002 6.66018578 -4 10 C-5.625 11.4375 -5.625 11.4375 -8 13 C-9.25249791 13.89233757 -10.50235609 14.7883882 -11.75 15.6875 C-12.8225 16.450625 -13.895 17.21375 -15 18 C-13.66465724 15.05886531 -12.17535119 12.89154831 -9.9609375 10.546875 C-9.38085938 9.928125 -8.80078125 9.309375 -8.203125 8.671875 C-7.59984375 8.03765625 -6.9965625 7.4034375 -6.375 6.75 C-5.76398438 6.1003125 -5.15296875 5.450625 -4.5234375 4.78125 C-3.01971926 3.18354937 -1.51184263 1.59000851 0 0 Z " fill="#172230" transform="translate(172,186)"/>
<path d="M0 0 C0 0.66 0 1.32 0 2 C-8.35263176 2.95458649 -16.59784035 3.11039334 -25 3 C-25 2.67 -25 2.34 -25 2 C-21.773025 1.4649366 -18.54320875 0.94949467 -15.3125 0.4375 C-14.40048828 0.28603516 -13.48847656 0.13457031 -12.54882812 -0.02148438 C-11.66259766 -0.16005859 -10.77636719 -0.29863281 -9.86328125 -0.44140625 C-8.64572144 -0.63778687 -8.64572144 -0.63778687 -7.40356445 -0.83813477 C-4.75437143 -1.01654157 -2.57036819 -0.62608968 0 0 Z " fill="#15202E" transform="translate(506,453)"/>
<path d="M0 0 C0.66 0.33 1.32 0.66 2 1 C-0.06964176 3.03674283 -2.15359702 5.05363419 -4.25 7.0625 C-5.12978516 7.93358398 -5.12978516 7.93358398 -6.02734375 8.82226562 C-6.60097656 9.36689453 -7.17460937 9.91152344 -7.765625 10.47265625 C-8.28930664 10.98062744 -8.81298828 11.48859863 -9.35253906 12.01196289 C-11 13 -11 13 -13.20214844 12.65795898 C-13.79543945 12.44083252 -14.38873047 12.22370605 -15 12 C-13.59290434 10.51172574 -12.17393799 9.03466815 -10.75 7.5625 C-9.96109375 6.73878906 -9.1721875 5.91507813 -8.359375 5.06640625 C-6.02225795 3.01949413 -4.94775692 2.54798045 -2 2 C-1.34 1.34 -0.68 0.68 0 0 Z " fill="#142639" transform="translate(190,172)"/>
<path d="M0 0 C-2.84971858 1.57571723 -5.25553959 2.34823995 -8.4765625 2.78125 C-9.311875 2.90113281 -10.1471875 3.02101563 -11.0078125 3.14453125 C-12.76027547 3.38255234 -14.51288148 3.61952251 -16.265625 3.85546875 C-17.09835937 3.97535156 -17.93109375 4.09523438 -18.7890625 4.21875 C-19.54912598 4.32123047 -20.30918945 4.42371094 -21.09228516 4.52929688 C-23.22610998 4.88135729 -23.22610998 4.88135729 -25 7 C-25.66 6.01 -26.32 5.02 -27 4 C-23.46274682 1.64183121 -20.42332134 1.33553279 -16.3125 0.875 C-15.62994141 0.78863281 -14.94738281 0.70226562 -14.24414062 0.61328125 C-9.46834599 0.04505639 -4.80836821 -0.07555236 0 0 Z " fill="#131B27" transform="translate(529,514)"/>
<path d="M0 0 C0.73605469 0.00451172 1.47210938 0.00902344 2.23046875 0.01367188 C4.02868158 0.02534858 5.82685197 0.04327989 7.625 0.0625 C7.955 1.0525 8.285 2.0425 8.625 3.0625 C1.035 3.0625 -6.555 3.0625 -14.375 3.0625 C-14.375 2.4025 -14.375 1.7425 -14.375 1.0625 C-9.51770355 0.08950844 -4.9249375 -0.05788805 0 0 Z " fill="#2B3F54" transform="translate(317.375,459.9375)"/>
<path d="M0 0 C2.80435411 -0.05632424 5.35146678 0.04185298 8.125 0.3125 C9.25615234 0.4043457 9.25615234 0.4043457 10.41015625 0.49804688 C12.27463438 0.6514533 14.13752498 0.82393459 16 1 C15.01 2.485 15.01 2.485 14 4 C12.08203125 4.328125 12.08203125 4.328125 9.8125 4.25 C8.61753906 4.21132813 8.61753906 4.21132813 7.3984375 4.171875 C4.22350005 3.94435505 1.13785808 3.5341035 -2 3 C-1.34 2.01 -0.68 1.02 0 0 Z " fill="#DEE0E1" transform="translate(281,587)"/>
<path d="M0 0 C8.58 0 17.16 0 26 0 C26 0.33 26 0.66 26 1 C21.29538677 2.86132673 17.1242304 3.2509496 12.125 3.125 C11.43664062 3.11597656 10.74828125 3.10695313 10.0390625 3.09765625 C8.35922162 3.07432513 6.67956254 3.03846326 5 3 C5 2.67 5 2.34 5 2 C3.35 1.67 1.7 1.34 0 1 C0 0.67 0 0.34 0 0 Z " fill="#E2E3E4" transform="translate(320,458)"/>
<path d="M0 0 C0.66 0.33 1.32 0.66 2 1 C1.52517262 5.27344643 -0.99204637 7.13528225 -4 10 C-6.38754923 12.82968797 -7.74299146 15.51905327 -9 19 C-9.66796875 17.30859375 -9.66796875 17.30859375 -10 15 C-8.92578125 12.59765625 -8.92578125 12.59765625 -7.3125 10.0625 C-6.75949219 9.18980469 -6.20648437 8.31710937 -5.63671875 7.41796875 C-3.88361356 4.82805917 -2.04890919 2.36412599 0 0 Z " fill="#101C2C" transform="translate(36,419)"/>
<path d="M0 0 C5.68502535 1.64566523 10.76681636 4.29032784 16 7 C16 7.66 16 8.32 16 9 C10.65155992 8.46515599 6.64203897 6.53309233 2 4 C2 3.34 2 2.68 2 2 C1.34 2 0.68 2 0 2 C0 1.34 0 0.68 0 0 Z " fill="#E6E7E8" transform="translate(470,158)"/>
<path d="M0 0 C1.2375 0.00386719 2.475 0.00773438 3.75 0.01171875 C7 0.3125 7 0.3125 10 2.3125 C9 3.3125 9 3.3125 7.14233398 3.42602539 C6.35157471 3.42078857 5.56081543 3.41555176 4.74609375 3.41015625 C3.89208984 3.40693359 3.03808594 3.40371094 2.15820312 3.40039062 C1.26037109 3.39201172 0.36253906 3.38363281 -0.5625 3.375 C-1.46419922 3.37048828 -2.36589844 3.36597656 -3.29492188 3.36132812 C-5.53001314 3.34950225 -7.76497437 3.3330222 -10 3.3125 C-6.87969038 -0.2419039 -4.70882068 -0.06376528 0 0 Z " fill="#E2E4E4" transform="translate(387,590.6875)"/>
<path d="M0 0 C4.29 0.66 8.58 1.32 13 2 C11.02 2.99 11.02 2.99 9 4 C11.97 5.65 14.94 7.3 18 9 C15 10 15 10 11.6796875 8.41796875 C10.40533832 7.68501844 9.13728125 6.94104365 7.875 6.1875 C7.22917969 5.81818359 6.58335937 5.44886719 5.91796875 5.06835938 C1.13908679 2.27817358 1.13908679 2.27817358 0 0 Z " fill="#D4D9DD" transform="translate(167,530)"/>
<path d="M0 0 C-2.92324707 1.94883138 -4.51083018 2.48079727 -7.875 3.125 C-8.71804688 3.29257813 -9.56109375 3.46015625 -10.4296875 3.6328125 C-12.99151915 3.99878845 -15.41609989 4.06482904 -18 4 C-12.39511579 0.26341053 -6.68080185 -1.88432873 0 0 Z " fill="#E6E7E8" transform="translate(286,147)"/>
<path d="M0 0 C-0.33 0.99 -0.66 1.98 -1 3 C-7.93 2.67 -14.86 2.34 -22 2 C-22 1.67 -22 1.34 -22 1 C-14.63512596 0.00137301 -7.42686315 -0.10331031 0 0 Z " fill="#1F374F" transform="translate(460,481)"/>
<path d="M0 0 C2.08304538 -0.05418326 4.16649768 -0.09287551 6.25 -0.125 C7.99023438 -0.15980469 7.99023438 -0.15980469 9.765625 -0.1953125 C12.82786046 -0.0103949 14.44202751 0.39176977 17 2 C13.24600202 3.2039337 9.66782588 3.09877617 5.75 3.0625 C4.48671875 3.05347656 3.2234375 3.04445313 1.921875 3.03515625 C0.95765625 3.02355469 -0.0065625 3.01195312 -1 3 C-0.67 2.01 -0.34 1.02 0 0 Z " fill="#E3E3E4" transform="translate(293,521)"/>
<path d="M0 0 C0 0.99 0 1.98 0 3 C-0.680625 3.103125 -1.36125 3.20625 -2.0625 3.3125 C-5.18585101 3.94520213 -5.18585101 3.94520213 -8.625 5.625 C-12 7 -12 7 -15 6 C-12.60156648 3.17412288 -10.47839022 2.29810862 -6.9375 1.3125 C-6.05964844 1.06113281 -5.18179688 0.80976562 -4.27734375 0.55078125 C-2 0 -2 0 0 0 Z " fill="#E6E7E8" transform="translate(614,516)"/>
<path d="M0 0 C1.06347656 0.00386719 2.12695312 0.00773437 3.22265625 0.01171875 C5.9375 0.3125 5.9375 0.3125 7.9375 2.3125 C6.9375 3.3125 6.9375 3.3125 3.33984375 3.41015625 C1.85153133 3.4034822 0.36323568 3.39152183 -1.125 3.375 C-1.88361328 3.37048828 -2.64222656 3.36597656 -3.42382812 3.36132812 C-5.30341871 3.3495068 -7.18296899 3.33157078 -9.0625 3.3125 C-6.43897626 -0.15201393 -4.19734485 -0.06630071 0 0 Z " fill="#E4E5E6" transform="translate(418.0625,485.6875)"/>
<path d="M0 0 C0.33 0 0.66 0 1 0 C1.33 2.97 1.66 5.94 2 9 C2.33 9 2.66 9 3 9 C3 11.97 3 14.94 3 18 C1.68 18.33 0.36 18.66 -1 19 C-1.33 18.01 -1.66 17.02 -2 16 C-1.34 16 -0.68 16 0 16 C0 10.72 0 5.44 0 0 Z " fill="#E2E3E3" transform="translate(87,371)"/>
<path d="M0 0 C6.27 0 12.54 0 19 0 C18.67 0.99 18.34 1.98 18 3 C14.37 3 10.74 3 7 3 C7 2.34 7 1.68 7 1 C4.69 1 2.38 1 0 1 C0 0.67 0 0.34 0 0 Z " fill="#E3E4E6" transform="translate(364,135)"/>
<path d="M0 0 C4.9723422 1.49170266 9.41845739 3.60457417 14 6 C13.34 6.66 12.68 7.32 12 8 C10.02 7.34 8.04 6.68 6 6 C6 5.34 6 4.68 6 4 C4.35 3.67 2.7 3.34 1 3 C0.67 2.01 0.34 1.02 0 0 Z " fill="#E1E2E4" transform="translate(61,497)"/>
<path d="M0 0 C0.33 0 0.66 0 1 0 C1.125 6.75 1.125 6.75 0 9 C0.66 9 1.32 9 2 9 C2 11.64 2 14.28 2 17 C1.01 17 0.02 17 -1 17 C-1.02709444 14.91673869 -1.04643873 12.83337559 -1.0625 10.75 C-1.07410156 9.58984375 -1.08570313 8.4296875 -1.09765625 7.234375 C-1.01782092 4.59022872 -0.78643778 2.50173909 0 0 Z " fill="#E5E6E5" transform="translate(630,343)"/>
<path d="M0 0 C0.33 0 0.66 0 1 0 C2.2019586 6.22833095 1.93161919 9.37129115 -1 15 C-1.99 14.34 -2.98 13.68 -4 13 C-3.525625 11.96875 -3.05125 10.9375 -2.5625 9.875 C-1.15477612 6.61465838 -0.43164502 3.53948917 0 0 Z " fill="#E6E7E8" transform="translate(696,452)"/>
<path d="M0 0 C-1 2 -1 2 -3.625 3.125 C-7.21810788 4.05654649 -10.30415624 4.14783375 -14 4 C-14 3.01 -14 2.02 -14 1 C-4.58997722 -0.14806378 -4.58997722 -0.14806378 0 0 Z " fill="#DFE1E2" transform="translate(440,587)"/>
<path d="M0 0 C0 2.31 0 4.62 0 7 C-0.33 7 -0.66 7 -1 7 C-1.33 8.65 -1.66 10.3 -2 12 C-2.33 12 -2.66 12 -3 12 C-3 9.03 -3 6.06 -3 3 C-3.99 2.67 -4.98 2.34 -6 2 C-2.25 0 -2.25 0 0 0 Z " fill="#DFE1E2" transform="translate(90,410)"/>
<path d="M0 0 C2.3828125 -0.29296875 2.3828125 -0.29296875 5.125 -0.1875 C6.03507812 -0.16042969 6.94515625 -0.13335938 7.8828125 -0.10546875 C8.58148438 -0.07066406 9.28015625 -0.03585937 10 0 C10 0.99 10 1.98 10 3 C6.04 3 2.08 3 -2 3 C-1.34 2.01 -0.68 1.02 0 0 Z " fill="#E0E2E3" transform="translate(264,519)"/>
<path d="M0 0 C3.3 0 6.6 0 10 0 C10 0.99 10 1.98 10 3 C6.7 3 3.4 3 0 3 C0 2.01 0 1.02 0 0 Z " fill="#2D3B4C" transform="translate(424,459)"/>
<path d="M0 0 C0.33 0 0.66 0 1 0 C1.33 4.62 1.66 9.24 2 14 C1.01 14 0.02 14 -1 14 C-2.4783226 11.04335481 -2.06032783 8.25770263 -2 5 C-1.67 5 -1.34 5 -1 5 C-0.67 3.35 -0.34 1.7 0 0 Z " fill="#CBCED2" transform="translate(23,444)"/>
<path d="M0 0 C1.98 0.66 3.96 1.32 6 2 C6 2.66 6 3.32 6 4 C8.475 4.99 8.475 4.99 11 6 C10.67 6.66 10.34 7.32 10 8 C6.7 6.35 3.4 4.7 0 3 C0 2.01 0 1.02 0 0 Z " fill="#DFE1E3" transform="translate(646,392)"/>
<path d="M0 0 C0.99 0 1.98 0 3 0 C6.07692308 5.41538462 6.07692308 5.41538462 5.6875 8.375 C5.460625 8.91125 5.23375 9.4475 5 10 C2.35534962 6.8745041 1.15585285 3.91211733 0 0 Z " fill="#E1E3E3" transform="translate(599,254)"/>
<path d="M0 0 C0.66 0.33 1.32 0.66 2 1 C-1.63 4.63 -5.26 8.26 -9 12 C-9 7.8407692 -6.75316432 5.85455565 -4 3 C-1.6875 1.125 -1.6875 1.125 0 0 Z " fill="#1B3650" transform="translate(334,58)"/>
<path d="M0 0 C0.91007812 0.00902344 1.82015625 0.01804687 2.7578125 0.02734375 C3.45648438 0.03894531 4.15515625 0.05054688 4.875 0.0625 C5.205 1.0525 5.535 2.0425 5.875 3.0625 C4.27120659 3.11666188 2.66688594 3.15536638 1.0625 3.1875 C0.16917969 3.21070313 -0.72414063 3.23390625 -1.64453125 3.2578125 C-4.125 3.0625 -4.125 3.0625 -7.125 1.0625 C-4.60024538 -0.19987731 -2.81299534 -0.03606404 0 0 Z " fill="#E3E5E6" transform="translate(289.125,484.9375)"/>
<path d="M0 0 C0.66 0 1.32 0 2 0 C6 6.75 6 6.75 6 9 C2.7 9 -0.6 9 -4 9 C-4 8.67 -4 8.34 -4 8 C-2.02 7.67 -0.04 7.34 2 7 C1.34 4.69 0.68 2.38 0 0 Z " fill="#FAFCFB" transform="translate(316,108)"/>
<path d="M0 0 C2.64 0.33 5.28 0.66 8 1 C8 1.99 8 2.98 8 4 C5.03 3.67 2.06 3.34 -1 3 C-0.67 2.01 -0.34 1.02 0 0 Z " fill="#E2E3E3" transform="translate(183,443)"/>
<path d="M0 0 C0.66 0.33 1.32 0.66 2 1 C2.4140625 3.06640625 2.4140625 3.06640625 2.625 5.5625 C2.69976563 6.38878906 2.77453125 7.21507812 2.8515625 8.06640625 C2.92503906 9.02353516 2.92503906 9.02353516 3 10 C2.01 10.33 1.02 10.66 0 11 C-0.19406478 9.35492782 -0.38007935 7.70890406 -0.5625 6.0625 C-0.66691406 5.14597656 -0.77132812 4.22945313 -0.87890625 3.28515625 C-0.91886719 2.53105469 -0.95882812 1.77695312 -1 1 C-0.67 0.67 -0.34 0.34 0 0 Z " fill="#E1E3E4" transform="translate(627,332)"/>
<path d="M0 0 C4.455 1.98 4.455 1.98 9 4 C8.67 4.99 8.34 5.98 8 7 C5.36 5.68 2.72 4.36 0 3 C0 2.01 0 1.02 0 0 Z " fill="#E4E5E6" transform="translate(163,553)"/>
<path d="M0 0 C0.99 0 1.98 0 3 0 C2.29445932 3.66881155 0.72264494 6.70450534 -1 10 C-2.27351308 7.45297384 -1.80191925 6.5717055 -1.0625 3.875 C-0.86785156 3.15054687 -0.67320313 2.42609375 -0.47265625 1.6796875 C-0.31667969 1.12539063 -0.16070312 0.57109375 0 0 Z " fill="#DEDFE0" transform="translate(119,316)"/>
<path d="M0 0 C0 3.58912412 -0.66436554 4.10857029 -3 6.6875 C-3.556875 7.31011719 -4.11375 7.93273437 -4.6875 8.57421875 C-5.120625 9.04472656 -5.55375 9.51523438 -6 10 C-6.66 9.67 -7.32 9.34 -8 9 C-7.75 7.125 -7.75 7.125 -7 5 C-5.125 3.9375 -5.125 3.9375 -3 3 C-1.29078411 1.4587688 -1.29078411 1.4587688 0 0 Z " fill="#1F374F" transform="translate(163,198)"/>
<path d="M0 0 C-0.33 0.99 -0.66 1.98 -1 3 C-3.97 3 -6.94 3 -10 3 C-10 2.34 -10 1.68 -10 1 C-6.78548731 -0.60725635 -3.56387464 -0.05748185 0 0 Z " fill="#E2E3E5" transform="translate(320,590)"/>
<path d="M0 0 C0.33 0.66 0.66 1.32 1 2 C-0.4726862 5.27263601 -1.42695432 6.72014048 -4.6875 8.3125 C-5.450625 8.539375 -6.21375 8.76625 -7 9 C-6.02180976 7.68677212 -5.0424189 6.37443848 -4.0625 5.0625 C-3.51722656 4.33160156 -2.97195312 3.60070312 -2.41015625 2.84765625 C-1 1 -1 1 0 0 Z " fill="#0D1827" transform="translate(155,205)"/>
<path d="M0 0 C2.64 0 5.28 0 8 0 C8 0.66 8 1.32 8 2 C6.02 2.66 4.04 3.32 2 4 C1.34 3.34 0.68 2.68 0 2 C0 1.34 0 0.68 0 0 Z " fill="#ADB6BE" transform="translate(541,531)"/>
<path d="M0 0 C0 0.66 0 1.32 0 2 C-2.75 2.6875 -2.75 2.6875 -6 3 C-8.375 1.5625 -8.375 1.5625 -10 0 C-6.33694766 -0.74926071 -3.57644848 -1.2380014 0 0 Z " fill="#A6AEB8" transform="translate(184,533)"/>
<path d="M0 0 C1.32 0.33 2.64 0.66 4 1 C4 1.66 4 2.32 4 3 C0.7 3.33 -2.6 3.66 -6 4 C-5.67 3.01 -5.34 2.02 -5 1 C-3.35 1.33 -1.7 1.66 0 2 C0 1.34 0 0.68 0 0 Z " fill="#E3E4E5" transform="translate(300,117)"/>
<path d="M0 0 C1.27875 -0.061875 2.5575 -0.12375 3.875 -0.1875 C4.95394531 -0.23970703 4.95394531 -0.23970703 6.0546875 -0.29296875 C6.69664062 -0.19628906 7.33859375 -0.09960938 8 0 C8.66 0.99 9.32 1.98 10 3 C7.36 3 4.72 3 2 3 C2 2.34 2 1.68 2 1 C1.34 0.67 0.68 0.34 0 0 Z " fill="#A6AEB7" transform="translate(408,566)"/>
<path d="M0 0 C2.97 0 5.94 0 9 0 C8.01 0.495 8.01 0.495 7 1 C7 1.66 7 2.32 7 3 C4.36 3 1.72 3 -1 3 C-0.67 2.01 -0.34 1.02 0 0 Z " fill="#E4E5E6" transform="translate(459,483)"/>
<path d="M0 0 C3.67230705 3.07999946 4.56802365 5.2482602 5 10 C4.01 9.67 3.02 9.34 2 9 C1.855625 8.2575 1.71125 7.515 1.5625 6.75 C1.09812508 4.47972261 0.58136431 2.24240521 0 0 Z " fill="#F3F3F3" transform="translate(671,436)"/>
<path d="M0 0 C-3.96 1.98 -3.96 1.98 -8 4 C-8.99 3.34 -9.98 2.68 -11 2 C-9.68 2 -8.36 2 -7 2 C-7 1.34 -7 0.68 -7 0 C-3.98968256 -0.93423645 -3.13349732 -1.04449911 0 0 Z " fill="#E2E3E4" transform="translate(594,427)"/>
<path d="M0 0 C0.99 0 1.98 0 3 0 C3 2.64 3 5.28 3 8 C2.01 8 1.02 8 0 8 C0 5.36 0 2.72 0 0 Z " fill="#E2E4E4" transform="translate(111,360)"/>
<path d="M0 0 C0.99 0.66 1.98 1.32 3 2 C0.36 4.64 -2.28 7.28 -5 10 C-5 6.07176899 -3.48245551 4.93381106 -1 2 C-0.67 1.34 -0.34 0.68 0 0 Z " fill="#1F374E" transform="translate(174,184)"/>
<path d="M0 0 C-0.33 0.66 -0.66 1.32 -1 2 C-4.4375 2.75 -4.4375 2.75 -8 3 C-8.66 2.34 -9.32 1.68 -10 1 C-3.375 -1.125 -3.375 -1.125 0 0 Z " fill="#E4E6E7" transform="translate(513,573)"/>
<path d="M0 0 C3.63 0.33 7.26 0.66 11 1 C11 1.33 11 1.66 11 2 C7.37 2.33 3.74 2.66 0 3 C0 2.01 0 1.02 0 0 Z " fill="#A7B0B9" transform="translate(529,533)"/>
<path d="M0 0 C0.78375 0.04125 1.5675 0.0825 2.375 0.125 C2.375 0.785 2.375 1.445 2.375 2.125 C3.365 2.125 4.355 2.125 5.375 2.125 C5.375 2.785 5.375 3.445 5.375 4.125 C2.075 3.465 -1.225 2.805 -4.625 2.125 C-2.625 0.125 -2.625 0.125 0 0 Z " fill="#E0E1E4" transform="translate(130.625,497.875)"/>
<path d="M0 0 C0.99 0.33 1.98 0.66 3 1 C3 3.64 3 6.28 3 9 C2.34 9 1.68 9 1 9 C0.67 6.03 0.34 3.06 0 0 Z " fill="#273B50" transform="translate(91,351)"/>
<path d="M0 0 C2.64 0 5.28 0 8 0 C7.67 0.99 7.34 1.98 7 3 C4.69 3 2.38 3 0 3 C0 2.01 0 1.02 0 0 Z " fill="#9FAAB4" transform="translate(257,542)"/>
<path d="M0 0 C-3.96 1.98 -3.96 1.98 -8 4 C-8.33 2.68 -8.66 1.36 -9 0 C-3.375 -1.125 -3.375 -1.125 0 0 Z " fill="#C3CAD0" transform="translate(557,530)"/>
<path d="M0 0 C1.98 0 3.96 0 6 0 C6 0.99 6 1.98 6 3 C4.02 3 2.04 3 0 3 C0 2.01 0 1.02 0 0 Z " fill="#E1E3E4" transform="translate(215,449)"/>
<path d="M0 0 C3.3 0 6.6 0 10 0 C8.68 0.33 7.36 0.66 6 1 C6 1.66 6 2.32 6 3 C3.13275314 2.42655063 2.1385485 2.1385485 0 0 Z " fill="#DBDEE0" transform="translate(501,478)"/>
<path d="M0 0 C1.670625 0.061875 1.670625 0.061875 3.375 0.125 C3.375 1.115 3.375 2.105 3.375 3.125 C0.405 2.795 -2.565 2.465 -5.625 2.125 C-3.625 0.125 -3.625 0.125 0 0 Z " fill="#E5E6E6" transform="translate(194.625,473.875)"/>
<path d="M0 0 C1.875 0.25 1.875 0.25 4 1 C5.25 3.0625 5.25 3.0625 6 5 C3 5 3 5 1.3125 3.625 C0 2 0 2 0 0 Z " fill="#E4E6E7" transform="translate(50,462)"/>
<path d="M0 0 C0.66 0.33 1.32 0.66 2 1 C0.29374499 3.78388975 -0.47626739 4.85384206 -3.6875 5.75 C-4.8321875 5.87375 -4.8321875 5.87375 -6 6 C-4 4 -2 2 0 0 Z " fill="#0B1622" transform="translate(201,162)"/>
<path d="M0 0 C1.32 0 2.64 0 4 0 C4 0.66 4 1.32 4 2 C5.32 2.66 6.64 3.32 8 4 C7.01 4.495 7.01 4.495 6 5 C3.96855359 4.06553465 1.96466413 3.06775224 0 2 C0 1.34 0 0.68 0 0 Z " fill="#E2E4E5" transform="translate(484,140)"/>
</svg>
