<?xml version="1.0" encoding="UTF-8"?>
<svg version="1.1" xmlns="http://www.w3.org/2000/svg" width="988" height="988">
<path d="M0 0 C1.48880159 0.20699691 2.97774188 0.41299799 4.46679688 0.61816406 C25.6256156 3.55796263 46.36244176 7.40814699 67 13 C68.03721191 13.27956543 69.07442383 13.55913086 70.14306641 13.84716797 C124.82913063 28.77580988 175.41156924 52.88634476 222 85 C222.75410156 85.51578613 223.50820313 86.03157227 224.28515625 86.56298828 C233.30456673 92.74702245 241.7684921 99.54629075 250.19140625 106.51171875 C251.78410836 107.82234403 253.39099377 109.11569292 255 110.40625 C261.7220837 115.79954971 268.03910256 121.55150081 274.32519531 127.43847656 C276.00792117 129.00738539 277.70108443 130.56412406 279.3984375 132.1171875 C287.65252959 139.67188158 295.77071875 147.27417187 303.0625 155.78125 C304.98553803 157.98343872 306.95987838 160.13215043 308.94897461 162.2746582 C314.55715341 168.3225812 319.86910847 174.53798095 325 181 C325.49306641 181.6098877 325.98613281 182.21977539 326.49414062 182.84814453 C336.85636216 195.67562252 346.06912481 209.14554641 355 223 C355.57637207 223.89090332 356.15274414 224.78180664 356.74658203 225.69970703 C386.89661364 272.55747556 408.48777598 324.72608582 421 379 C421.23267578 380.00885254 421.46535156 381.01770508 421.70507812 382.05712891 C425.22389115 397.58351544 427.90310552 413.22143271 430 429 C430.15243164 430.08893555 430.30486328 431.17787109 430.46191406 432.29980469 C435.77328303 471.63605566 435.53512439 513.70331691 430 553 C429.82839355 554.28471191 429.65678711 555.56942383 429.47998047 556.89306641 C423.05139255 604.70768979 409.56396868 650.9090884 390 695 C389.64583008 695.80228027 389.29166016 696.60456055 388.92675781 697.43115234 C383.33449682 709.99843737 376.71795836 722.00597593 370 734 C369.54222168 734.82290527 369.08444336 735.64581055 368.61279297 736.49365234 C350.93217683 768.17654071 329.27015556 797.58268641 304.609375 824.171875 C302.24695274 826.73234464 299.93208205 829.32729768 297.625 831.9375 C290.240307 840.15744553 282.43933528 848.11400778 274.01171875 855.26953125 C271.51716397 857.41533274 269.10781018 859.64585677 266.6875 861.875 C261.28499945 866.79513443 255.71013746 871.44257746 250 876 C249.22946289 876.6199585 249.22946289 876.6199585 248.44335938 877.25244141 C182.35890452 930.37171754 104.36488397 964.40024472 21 979 C20.17258301 979.14920898 19.34516602 979.29841797 18.49267578 979.45214844 C12.6818526 980.48610274 6.85961313 981.29638314 1 982 C-0.12132324 982.13680176 -1.24264648 982.27360352 -2.39794922 982.41455078 C-42.21002379 987.04580457 -83.22282738 986.9362418 -123 982 C-124.1353418 981.86078125 -125.27068359 981.7215625 -126.44042969 981.578125 C-210.40832464 970.8493079 -291.86120617 937.53442578 -359 886 C-359.57427734 885.56171875 -360.14855469 885.1234375 -360.74023438 884.671875 C-373.32691826 875.03454609 -385.30167082 864.69356471 -397 854 C-397.48791016 853.55720703 -397.97582031 853.11441406 -398.47851562 852.65820312 C-408.86604463 843.22793084 -419.25625449 833.64703821 -428.34375 822.93359375 C-430.25985577 820.69663065 -432.25512856 818.54196422 -434.25 816.375 C-439.29815828 810.77256758 -443.92244425 804.88465799 -448.52001953 798.91259766 C-450.0097521 796.98739724 -451.5169948 795.0770228 -453.02734375 793.16796875 C-465.45603718 777.33922857 -476.78217812 760.5178341 -486.81152344 743.06494141 C-487.68143991 741.55348834 -488.55803999 740.04587663 -489.43847656 738.54052734 C-514.07886686 696.3820002 -532.03004669 650.58405092 -543 603 C-543.23267578 601.99114746 -543.46535156 600.98229492 -543.70507812 599.94287109 C-547.22389115 584.41648456 -549.90310552 568.77856729 -552 553 C-552.15243164 551.91106445 -552.30486328 550.82212891 -552.46191406 549.70019531 C-557.77328303 510.36394434 -557.53512439 468.29668309 -552 429 C-551.82839355 427.71528809 -551.65678711 426.43057617 -551.47998047 425.10693359 C-544.40358388 372.47403163 -529.53551182 319.99892453 -504.9296875 272.80810547 C-503.98920441 270.97900416 -503.08383262 269.13625698 -502.1875 267.28515625 C-493.38619416 249.16059048 -483.31417154 231.66997024 -472 215 C-471.46262207 214.2049707 -470.92524414 213.40994141 -470.37158203 212.59082031 C-462.87001222 201.54285929 -454.99441852 190.95174461 -446.42382812 180.71191406 C-444.39481543 178.27236724 -442.42138889 175.78879296 -440.4375 173.3125 C-435.7135759 167.54551966 -430.65486696 162.11345964 -425.56152344 156.67480469 C-423.99261461 154.99207883 -422.43587594 153.29891557 -420.8828125 151.6015625 C-413.32811842 143.34747041 -405.72582813 135.22928125 -397.21875 127.9375 C-395.01625854 126.0141976 -392.86729131 124.03952773 -390.72436523 122.05029297 C-384.67812531 116.44299373 -378.4552454 111.13624397 -372 106 C-371.48775879 105.58814453 -370.97551758 105.17628906 -370.44775391 104.75195312 C-298.58512785 46.98387053 -213.07360723 12.33233179 -122 0 C-120.94490234 -0.15243164 -119.88980469 -0.30486328 -118.80273438 -0.46191406 C-80.31757359 -5.85822825 -38.42519659 -5.61660638 0 0 Z " fill="#EEEDEB" transform="translate(555,3)"/>
<path d="M0 0 C1.46533173 -0.00855011 1.46533173 -0.00855011 2.96026611 -0.01727295 C5.02086324 -0.02666334 7.08147497 -0.033233 9.14208984 -0.03710938 C12.2161058 -0.04672018 15.28942425 -0.07776214 18.36328125 -0.109375 C36.09203757 -0.20452819 53.30640037 1.77876376 70.640625 5.515625 C71.62869141 5.72582275 72.61675781 5.93602051 73.63476562 6.15258789 C83.43129984 8.30088176 93.00523394 11.02747057 102.515625 14.203125 C103.19995605 14.43080566 103.88428711 14.65848633 104.58935547 14.89306641 C145.88308973 28.90144514 184.26952327 56.30630355 210.22558594 91.46875 C211.53021255 93.22273703 212.86682884 94.94801457 214.2109375 96.671875 C250.07752474 143.27155767 264.14676579 201.81999299 264.890625 259.703125 C264.91680908 260.92644531 264.94299316 262.14976562 264.9699707 263.41015625 C264.98295383 270.32679638 264.4904181 275.44548206 260.515625 281.203125 C259.896875 282.10417969 259.278125 283.00523437 258.640625 283.93359375 C241.43971063 302.30442325 209.35899678 307.91346154 185.76269531 312.73974609 C183.54875809 313.19629247 181.34122846 313.67770681 179.1328125 314.16015625 C152.78321696 319.71621224 125.37061078 322.54536234 98.515625 324.203125 C97.2152832 324.29190918 95.91494141 324.38069336 94.57519531 324.47216797 C43.03786632 327.94644949 -9.70424457 328.02640188 -61.23303223 324.36132812 C-63.5504311 324.1984832 -65.86832458 324.04553374 -68.18652344 323.89453125 C-91.11108482 322.38460773 -113.7871174 319.74265171 -136.484375 316.203125 C-137.74072754 316.00992676 -138.99708008 315.81672852 -140.29150391 315.61767578 C-213.85914075 304.09264186 -213.85914075 304.09264186 -233.21484375 281.2578125 C-236.31394262 276.24204018 -236.80048135 271.16485776 -236.8203125 265.39453125 C-236.83281288 264.26821289 -236.83281288 264.26821289 -236.8455658 263.11914062 C-236.86506481 260.66776386 -236.86499396 258.21706736 -236.859375 255.765625 C-236.85916351 254.92321259 -236.85895203 254.08080017 -236.85873413 253.21286011 C-236.81732287 236.60615838 -235.33446602 220.57768245 -232.484375 204.203125 C-232.30245605 203.15640625 -232.12053711 202.1096875 -231.93310547 201.03125 C-222.99727229 151.71247812 -198.76377762 107.36190494 -164.484375 71.203125 C-163.96246582 70.6472168 -163.44055664 70.09130859 -162.90283203 69.51855469 C-153.87398961 59.95796878 -144.16463333 51.85947008 -133.484375 44.203125 C-132.57099365 43.53869385 -132.57099365 43.53869385 -131.63916016 42.86083984 C-94.58767156 16.10771229 -45.66621201 0.2138719 0 0 Z " fill="#EEEDEB" transform="translate(473.484375,142.796875)"/>
<path d="M0 0 C8.94614225 6.47663423 14.54357245 14.9546195 17.25 25.62890625 C17.65847036 28.7684055 17.72700766 31.84070302 17.6875 35.00390625 C17.68282715 35.82955078 17.6781543 36.65519531 17.67333984 37.50585938 C17.48202725 45.4383328 15.67211741 51.99573014 11.25 58.62890625 C12.07798096 58.76876953 12.90596191 58.90863281 13.7590332 59.05273438 C69.37237275 68.59061187 119.22218056 89.11023671 160.25 128.62890625 C161.16531494 129.50337402 161.16531494 129.50337402 162.09912109 130.39550781 C170.45888847 138.41593309 178.04608655 146.66448778 184.97802734 155.94677734 C186.23582343 157.61015835 187.52626577 159.24127974 188.83203125 160.8671875 C226.44673148 207.93408165 244.40238379 272.02505589 243.25 331.62890625 C243.92289063 331.73074219 244.59578125 331.83257812 245.2890625 331.9375 C248.9270414 332.78700167 252.22492478 334.17980256 255.625 335.69140625 C256.32399414 336.00158691 257.02298828 336.31176758 257.74316406 336.63134766 C278.36895459 345.9236235 299.6640057 357.87962494 308.125 380.12890625 C311.0617446 389.99914845 309.2640731 400.04003493 304.6875 409.06640625 C290.03707641 434.43924131 258.31268319 449.10096709 231.28125 457.0546875 C230.59585144 457.26007645 229.91045288 457.46546539 229.20428467 457.67707825 C225.83841769 458.68267582 222.4712308 459.6439513 219.07128906 460.52758789 C210.06457463 463.13697172 205.46468798 466.60302474 199.6809082 473.68969727 C178.31190401 499.52694157 139.42366123 511.38699096 108.25 519.62890625 C107.02603516 519.95737549 107.02603516 519.95737549 105.77734375 520.29248047 C69.2936498 529.96241621 29.96437931 534.14920581 -7.75 534.62890625 C-8.45560059 534.63879578 -9.16120117 534.6486853 -9.88818359 534.65887451 C-78.61127163 535.59280548 -152.92843726 531.2201498 -215.75 500.62890625 C-216.4620459 500.28778809 -217.1740918 499.94666992 -217.90771484 499.59521484 C-234.11558372 491.75246198 -251.5127576 480.87174037 -261.75 465.62890625 C-261.75 464.96890625 -261.75 464.30890625 -261.75 463.62890625 C-262.30872803 463.53528809 -262.86745605 463.44166992 -263.44311523 463.34521484 C-295.96264898 457.41354725 -336.38832202 441.90750244 -356.75 414.62890625 C-363.64679271 403.87058413 -365.8668034 392.31328179 -363.125 379.76953125 C-355.73334631 359.04650216 -335.33502843 347.42843793 -316.60546875 338.42578125 C-302.15669785 331.62890625 -302.15669785 331.62890625 -297.75 331.62890625 C-297.76571045 330.9011499 -297.7814209 330.17339355 -297.79760742 329.42358398 C-298.10553023 312.86721105 -297.5677212 296.95402503 -294.75 280.62890625 C-294.59966309 279.70819336 -294.44932617 278.78748047 -294.29443359 277.83886719 C-285.93523236 227.85726726 -262.23770783 179.21495326 -227.9140625 141.98046875 C-226.47038883 140.41171144 -225.04827663 138.82283739 -223.6484375 137.21484375 C-186.80973422 95.01778363 -127.09262106 64.01720523 -71.25 59.81640625 C-69.41737859 59.73568364 -67.58405447 59.66442491 -65.75 59.62890625 C-66.08773438 58.98824219 -66.42546875 58.34757812 -66.7734375 57.6875 C-67.21945312 56.82253906 -67.66546875 55.95757812 -68.125 55.06640625 C-68.56585938 54.21949219 -69.00671875 53.37257812 -69.4609375 52.5 C-73.88315028 42.65052608 -74.29816025 31.72376868 -71.25 21.37890625 C-66.65543371 9.46825356 -58.44166614 0.82236088 -46.96484375 -4.71484375 C-44.57679698 -5.6996053 -42.21276606 -6.5940713 -39.75 -7.37109375 C-39.15058594 -7.561875 -38.55117188 -7.75265625 -37.93359375 -7.94921875 C-24.34070514 -10.57539401 -11.54465874 -7.38192121 0 0 Z M-73.75 80.62890625 C-74.61482498 80.77391068 -75.47964996 80.9189151 -76.37068176 81.0683136 C-122.62340327 88.9498192 -165.94698404 110.07017309 -199.75 142.62890625 C-200.32427734 143.18126953 -200.89855469 143.73363281 -201.49023438 144.30273438 C-209.11152254 151.67684563 -216.31221083 159.17788619 -222.75 167.62890625 C-223.1840918 168.19722168 -223.61818359 168.76553711 -224.06542969 169.35107422 C-230.06373704 177.24457805 -235.72071604 185.26920381 -240.71240234 193.84765625 C-241.43523125 195.08854089 -242.16529183 196.32522926 -242.90087891 197.55859375 C-267.28076449 238.56157491 -278.03414685 285.66204062 -278.1875 333.06640625 C-278.1936734 333.88827423 -278.1998468 334.71014221 -278.20620728 335.55691528 C-278.21765301 337.91346497 -278.20538839 340.2685454 -278.18359375 342.625 C-278.18634308 343.31649139 -278.18909241 344.00798279 -278.19192505 344.72042847 C-278.07366047 350.97815889 -276.51522146 357.58742005 -271.9375 362.12890625 C-234.4435329 396.49837609 -158.92737663 397.91798524 -110.875 401.31640625 C-110.01667572 401.3774353 -109.15835144 401.43846436 -108.27401733 401.50134277 C-80.61034842 403.43244024 -52.96854507 403.83383021 -25.25 403.81640625 C-24.40521843 403.81628666 -23.56043686 403.81616707 -22.69005585 403.81604385 C14.46548767 403.80940029 51.30113713 402.79492043 88.25 398.62890625 C89.58405877 398.48501822 90.91820824 398.34196886 92.25244141 398.19970703 C158.50682061 391.9388115 158.50682061 391.9388115 216.25 362.62890625 C218.03963818 360.416276 218.03963818 360.416276 219.5 358.06640625 C220.00015625 357.30199219 220.5003125 356.53757812 221.015625 355.75 C234.42868459 332.70160964 219.46678746 280.42042456 213.26831055 256.62792969 C205.59868069 228.79335464 192.79196782 202.25614736 176.25 178.62890625 C175.78126465 177.95811035 175.3125293 177.28731445 174.82958984 176.59619141 C167.44289552 166.14483135 159.17508922 156.78331702 150.25 147.62890625 C149.26817037 146.60682731 148.28639626 145.58469504 147.3046875 144.5625 C109.0220411 105.35278097 56.72653201 85.54106146 3.25 78.62890625 C2.05181641 78.45617187 0.85363281 78.2834375 -0.38085938 78.10546875 C-5.2655241 77.500537 -10.12197341 77.4485508 -15.0390625 77.42578125 C-16.01878021 77.42008118 -16.99849792 77.4143811 -18.00790405 77.4085083 C-20.08045386 77.39909705 -22.15301837 77.39253981 -24.22558594 77.38867188 C-27.31734374 77.37908503 -30.40840117 77.34807436 -33.5 77.31640625 C-47.15130773 77.2441457 -60.29084979 78.36785468 -73.75 80.62890625 Z " fill="#162D46" transform="translate(514.75,65.37109375)"/>
<path d="M0 0 C0.01417969 0.96679688 0.02835938 1.93359375 0.04296875 2.9296875 C0.41642803 13.12411653 1.93751283 20.78950429 9 28.625 C39.83427253 56.75797943 92.26584213 62.14562727 132 68 C133.89192914 68.28904906 135.7838564 68.57811036 137.67578125 68.8671875 C180.358249 75.20742571 223.65187233 76.36790349 266.7277832 76.31567383 C270.85159253 76.3110569 274.97510577 76.31793849 279.09887695 76.33618164 C354.09164461 76.66431457 451.0025436 76.87808602 518 38 C519.03898438 37.41605469 520.07796875 36.83210938 521.1484375 36.23046875 C529.72381442 31.13812026 535.82366894 25.3014026 539.2890625 15.80859375 C540.6038815 10.61433629 540.83265231 5.33839135 541 0 C558.15867992 6.46700247 576.85084776 15.46594497 586.13671875 32.02734375 C587.99266441 36.26830555 587.27432443 40.16178647 585.875 44.4375 C575.92528214 64.83669324 550.08441127 75.04029598 529.82666016 82.03662109 C528.8938623 82.35453613 527.96106445 82.67245117 527 83 C526.06849121 83.32178223 525.13698242 83.64356445 524.17724609 83.97509766 C471.0641566 102.05710595 413.60956897 109.01174023 357.875 112.8125 C357.03490387 112.86980286 356.19480774 112.92710571 355.32925415 112.98614502 C350.39530407 113.31512784 345.46022175 113.60598924 340.52218628 113.86639404 C338.85152592 113.95489273 337.18104478 114.04684793 335.51077271 114.14239502 C313.7592568 115.36732532 291.96590757 115.24417787 270.1875 115.25 C269.17793747 115.25058914 268.16837494 115.25117828 267.1282196 115.25178528 C235.31632196 115.26487341 203.70905179 114.79220367 172 112 C170.27785159 111.85377335 168.55568372 111.70777579 166.83349609 111.56201172 C20.25316818 98.95239445 20.25316818 98.95239445 -29 63 C-30.32064453 62.04480469 -30.32064453 62.04480469 -31.66796875 61.0703125 C-39.41713517 55.18689811 -45.9448561 48.72654238 -47.5 38.8125 C-46.39645853 30.39799631 -40.4942181 23.20686867 -34 18 C-9.07948244 0 -9.07948244 0 0 0 Z " fill="#EEEDEB" transform="translate(217,418)"/>
<path d="M0 0 C1.75398102 -0.01407143 1.75398102 -0.01407143 3.543396 -0.02842712 C4.80685852 -0.01719315 6.07032104 -0.00595917 7.37207031 0.00561523 C8.68242249 0.00416 9.99277466 0.00270477 11.34283447 0.00120544 C14.12377931 -0.00017954 16.90420922 0.01237482 19.68505859 0.03515625 C23.20187788 0.06321357 26.71782951 0.0606032 30.23471069 0.04848194 C66.42441294 -0.05212685 66.42441294 -0.05212685 79.70019531 7.18920898 C80.36325684 7.53951172 81.02631836 7.88981445 81.70947266 8.25073242 C92.01892086 13.92207133 98.46662839 22.13428284 101.7956543 33.54223633 C103.17289685 39.13326545 103.55185056 44.5070746 103.51269531 50.25170898 C103.50705566 51.12424316 103.50141602 51.99677734 103.49560547 52.89575195 C103.24137684 66.53096482 99.91001626 77.29849091 90.82519531 87.62670898 C76.05409511 101.60396887 55.47815662 103.68693841 36.20019531 103.56420898 C34.83951988 103.55918385 33.47884264 103.55462274 32.11816406 103.55053711 C28.81212564 103.53881357 25.5061921 103.52152356 22.20019531 103.50170898 C22.20685715 104.19661942 22.21351898 104.89152985 22.22038269 105.60749817 C22.28048468 112.15520408 22.32616491 118.70283306 22.35563183 125.25075245 C22.37129042 128.61715776 22.39253152 131.98333521 22.42651367 135.34960938 C22.4628128 139.21938148 22.47990281 143.08882924 22.49316406 146.95874023 C22.50864792 148.16818802 22.52413177 149.3776358 22.54008484 150.62373352 C22.54031143 151.74466904 22.54053802 152.86560455 22.54077148 154.02050781 C22.54743332 155.00867996 22.55409515 155.99685211 22.56095886 157.01496887 C22.20019531 159.50170898 22.20019531 159.50170898 20.84638977 161.32002258 C18.3752725 163.09386264 16.33596992 162.89048477 13.32519531 162.90014648 C12.17535156 162.90401367 11.02550781 162.90788086 9.84082031 162.91186523 C8.63941406 162.90026367 7.43800781 162.88866211 6.20019531 162.87670898 C4.99878906 162.88831055 3.79738281 162.89991211 2.55957031 162.91186523 C0.83480469 162.90606445 0.83480469 162.90606445 -0.92480469 162.90014648 C-1.97925781 162.8967627 -3.03371094 162.89337891 -4.12011719 162.88989258 C-6.79980469 162.50170898 -6.79980469 162.50170898 -8.44305515 161.36608791 C-10.41069049 158.66225956 -10.18036887 156.60745607 -10.18748474 153.28346252 C-10.19738937 151.98092529 -10.20729401 150.67838806 -10.21749878 149.33638 C-10.21326048 147.88961698 -10.20870259 146.44285487 -10.20385742 144.99609375 C-10.20955858 143.47506202 -10.21652185 141.95403458 -10.22465515 140.43301392 C-10.24263031 136.29869586 -10.24141001 132.16458954 -10.23571277 128.03024411 C-10.23262707 124.58081938 -10.23870648 121.13143569 -10.24475151 117.68201679 C-10.25880955 109.54530084 -10.25722496 101.40868985 -10.24584961 93.27197266 C-10.23436779 84.87343871 -10.2484421 76.47522407 -10.27524608 68.07673222 C-10.29738714 60.8698519 -10.30404406 53.66307193 -10.29816967 46.45616001 C-10.29479496 42.15012942 -10.29724903 37.84430351 -10.3144207 33.53830147 C-10.32986242 29.48919787 -10.32596557 25.440568 -10.30711555 21.39148331 C-10.30342187 19.90477147 -10.30656084 18.41802475 -10.31700134 16.93134499 C-10.33015745 14.90324535 -10.31628907 12.87502384 -10.30101013 10.84693909 C-10.30080085 9.71149941 -10.30059156 8.57605974 -10.30037594 7.40621281 C-9.26264103 1.38488218 -5.65154264 0.00091485 0 0 Z " fill="#162E47" transform="translate(154.7998046875,652.498291015625)"/>
<path d="M0 0 C2.49164022 2.10326715 4.27758163 4.23838921 6 7 C6.58007812 7.91458984 6.58007812 7.91458984 7.171875 8.84765625 C9.68863514 13.58025955 10.4920922 18.44021465 11.09057617 23.71362305 C11.17585414 24.45792163 11.26113211 25.20222021 11.34899426 25.9690733 C12.22449655 34.21335257 12.30923226 42.42423619 12.30078125 50.70703125 C12.30468243 52.33225104 12.30901994 53.95746984 12.31376648 55.58268738 C12.32114043 58.94814404 12.32099751 62.31349555 12.31567383 65.67895508 C12.30981443 69.98849214 12.32700625 74.29760839 12.3500185 78.60707569 C12.36472636 81.94506839 12.36563289 85.28295805 12.36250877 88.6209774 C12.36302098 90.21139056 12.36823983 91.80180964 12.37832069 93.39219093 C12.39064462 95.60264828 12.38392468 97.81226151 12.37231445 100.02270508 C12.37294388 101.2771492 12.3735733 102.53159332 12.3742218 103.8240509 C11.97436094 107.21759379 11.41930701 108.62826274 9 111 C6.63989258 111.45410156 6.63989258 111.45410156 3.89453125 111.390625 C2.42016602 111.37128906 2.42016602 111.37128906 0.91601562 111.3515625 C-0.10814453 111.31804687 -1.13230469 111.28453125 -2.1875 111.25 C-3.22326172 111.23195313 -4.25902344 111.21390625 -5.32617188 111.1953125 C-7.88450836 111.14815422 -10.44237007 111.07641052 -13 111 C-13.66 107.7 -14.32 104.4 -15 101 C-16.02738281 101.54269531 -17.05476563 102.08539062 -18.11328125 102.64453125 C-25.9072831 106.69477178 -33.31029848 110.29440715 -42 112 C-43.155 112.226875 -44.31 112.45375 -45.5 112.6875 C-57.54849875 113.76325882 -68.99979768 113.08875759 -79.03515625 105.6484375 C-86.9077057 99.04363458 -90.32485495 91.56544111 -91.3828125 81.27734375 C-91.689001 71.24456736 -89.99281489 61.69668597 -83.66015625 53.62109375 C-71.16466715 41.41961616 -53.70300681 38.70155903 -37.01367188 38.82421875 C-35.61327853 38.84091934 -34.2128879 38.85784909 -32.8125 38.875 C-31.36914689 38.88505821 -29.92578694 38.894179 -28.48242188 38.90234375 C-24.98813606 38.92411309 -21.49411363 38.95848325 -18 39 C-18.13805196 37.07253887 -18.28251044 35.14553584 -18.4296875 33.21875 C-18.50944824 32.14560547 -18.58920898 31.07246094 -18.67138672 29.96679688 C-19.07789335 26.29676081 -19.77428664 23.96761781 -22 21 C-31.83705636 13.47611283 -47.73592049 14.85923206 -59.42675781 16.29882812 C-62.60343906 16.8437281 -65.71934908 17.55534977 -68.84375 18.34375 C-72.42584434 19.08854189 -75.35738889 19.45098995 -79 19 C-82.19052685 15.49500644 -82.48211917 12.06207709 -82.5625 7.4375 C-82.60503906 6.32246094 -82.64757812 5.20742188 -82.69140625 4.05859375 C-82 1 -82 1 -79.40625 -1.26953125 C-57.35488623 -12.47223096 -21.01366193 -13.99812903 0 0 Z " fill="#182F48" transform="translate(426,704)"/>
<path d="M0 0 C0.86753906 -0.01998047 1.73507812 -0.03996094 2.62890625 -0.06054688 C3.87994141 -0.05958008 3.87994141 -0.05958008 5.15625 -0.05859375 C6.29803711 -0.06137329 6.29803711 -0.06137329 7.46289062 -0.06420898 C9.5 0.4375 9.5 0.4375 11.07714844 1.9296875 C13.0943025 5.48497345 14.32520051 9.18723812 15.609375 13.05859375 C15.89678055 13.90573441 16.1841861 14.75287506 16.4803009 15.62568665 C17.41050651 18.37315923 18.33028788 21.12399899 19.25 23.875 C19.891202 25.77463146 20.5330493 27.67404522 21.17553711 29.57324219 C24.4434257 39.24815252 27.67880246 48.93395375 30.86695862 58.63545227 C32.74627491 64.34801117 34.77058382 70.00534608 36.8046875 75.6640625 C37.40700552 77.3479153 38.00913585 79.03183525 38.61108398 80.71582031 C39.80682595 84.06084686 41.01686376 87.40023927 42.23461914 90.73730469 C42.79109452 92.29081258 43.34702604 93.84451541 43.90234375 95.3984375 C44.16445648 96.1048941 44.42656921 96.81135071 44.69662476 97.53921509 C46.25848746 101.95855483 46.89647197 105.68430369 46.5 110.4375 C44.2391789 113.20700584 42.7328644 113.40949037 39.1875 113.8359375 C37.970625 113.82820312 36.75375 113.82046875 35.5 113.8125 C34.283125 113.82023438 33.06625 113.82796875 31.8125 113.8359375 C28.18400994 113.39949176 27.11335821 112.88844047 24.5 110.4375 C23.40332031 108.07739258 23.40332031 108.07739258 22.578125 105.33203125 C22.30387695 104.44620361 22.02962891 103.56037598 21.74707031 102.64770508 C21.41803711 101.5264624 21.08900391 100.40521973 20.75 99.25 C19.6775 95.681875 18.605 92.11375 17.5 88.4375 C5.62 88.4375 -6.26 88.4375 -18.5 88.4375 C-21.00710429 95.53930081 -21.00710429 95.53930081 -23.49536133 102.64770508 C-23.8127124 103.53353271 -24.13006348 104.41936035 -24.45703125 105.33203125 C-24.77647705 106.23800049 -25.09592285 107.14396973 -25.42504883 108.07739258 C-26.52701034 110.4968025 -27.3727246 111.85459972 -29.5 113.4375 C-33.1875 113.625 -33.1875 113.625 -36.5 113.4375 C-36.41941151 117.23005672 -36.30654683 121.02097092 -36.1875 124.8125 C-36.16494141 125.89273438 -36.14238281 126.97296875 -36.11914062 128.0859375 C-36.0659668 129.6328125 -36.0659668 129.6328125 -36.01171875 131.2109375 C-35.98553467 132.16403809 -35.95935059 133.11713867 -35.93237305 134.09912109 C-35.78968994 134.87078613 -35.64700684 135.64245117 -35.5 136.4375 C-32.41388292 138.49491139 -31.75018169 138.68879621 -28.25976562 138.70874023 C-27.40878296 138.71892685 -26.55780029 138.72911346 -25.68103027 138.73960876 C-24.30751404 138.74281883 -24.30751404 138.74281883 -22.90625 138.74609375 C-20.97004898 138.77124633 -19.03385113 138.79664446 -17.09765625 138.82226562 C-14.04281382 138.85105704 -10.98802639 138.87507339 -7.93310547 138.89379883 C-4.98636757 138.91539969 -2.04026834 138.95482726 0.90625 138.99609375 C1.82192749 138.99620956 2.73760498 138.99632538 3.68103027 138.9964447 C4.53201294 139.00978348 5.38299561 139.02312225 6.25976562 139.03686523 C7.00794556 139.04193588 7.75612549 139.04700653 8.52697754 139.05223083 C11.06474287 139.5477765 11.95592272 140.39138779 13.5 142.4375 C13.86328125 145.50390625 13.86328125 145.50390625 13.8125 149 C13.80863281 150.15628906 13.80476562 151.31257812 13.80078125 152.50390625 C13.5 155.4375 13.5 155.4375 11.5 157.4375 C8.75982669 158.33925912 6.22162967 158.57450997 3.34912109 158.61450195 C2.13668228 158.63375481 2.13668228 158.63375481 0.89974976 158.65339661 C0.03306671 158.66078354 -0.83361633 158.66817047 -1.7265625 158.67578125 C-2.62941986 158.683853 -3.53227722 158.69192474 -4.4624939 158.70024109 C-6.37390232 158.71405902 -8.28533519 158.7247914 -10.19677734 158.73266602 C-12.13825789 158.74415886 -14.07970751 158.7645677 -16.02099609 158.79418945 C-28.99036319 158.99196733 -39.62003672 159.12611175 -49.9296875 150.29296875 C-54.71889675 144.63407722 -56.10048969 140.18417336 -55.9609375 132.94921875 C-55.96002106 132.16480911 -55.95910461 131.38039948 -55.9581604 130.57221985 C-55.95215594 128.92756027 -55.93650566 127.28291 -55.91162109 125.63842773 C-55.87484942 123.11466544 -55.87060399 120.59236303 -55.87109375 118.06835938 C-55.86127108 116.46613309 -55.84961779 114.86391674 -55.8359375 113.26171875 C-55.83371185 112.50654465 -55.83148621 111.75137054 -55.82919312 110.97331238 C-55.73224214 105.66974214 -55.73224214 105.66974214 -53.5 103.4375 C-49.875 103.3125 -49.875 103.3125 -46.5 103.4375 C-46.24082291 102.44041519 -46.24082291 102.44041519 -45.97640991 101.42318726 C-44.16554694 94.6036655 -42.05590628 87.94743786 -39.7265625 81.2890625 C-39.36614365 80.2493782 -39.00572479 79.20969391 -38.63438416 78.13850403 C-37.46843345 74.77848538 -36.29709441 71.42037999 -35.125 68.0625 C-34.31617404 65.73971723 -33.50750013 63.41688151 -32.69897461 61.09399414 C-31.47694054 57.58443972 -30.25422413 54.07512949 -29.02958679 50.56648254 C-26.82659803 44.25440347 -24.63510557 37.93864187 -22.46289062 31.61590576 C-21.27606395 28.16359359 -20.08259423 24.71360338 -18.88763428 21.26409912 C-18.34047851 19.67986077 -17.79621495 18.09462037 -17.25494385 16.50836182 C-16.51259252 14.33474276 -15.75964726 12.16508677 -15.00390625 9.99609375 C-14.58955322 8.79267334 -14.1752002 7.58925293 -13.74829102 6.34936523 C-10.75724523 -0.62779164 -6.91776452 -0.05653448 0 0 Z " fill="#026EEE" transform="translate(636.5,685.5625)"/>
<path d="M0 0 C-23.40425415 12.95286246 -46.96044967 21.89935357 -73 28 C-74.54204102 28.3727002 -74.54204102 28.3727002 -76.11523438 28.75292969 C-96.87479692 33.73143876 -117.80504741 36.65209985 -139 39 C-140.78422363 39.20133545 -140.78422363 39.20133545 -142.60449219 39.40673828 C-182.17650771 43.61740919 -223.48920241 42.54490835 -263 38 C-263.74840149 37.91514343 -264.49680298 37.83028687 -265.2678833 37.74285889 C-295.04029004 34.33855921 -324.74096305 29.24266915 -353 19 C-353.86012695 18.68949707 -354.72025391 18.37899414 -355.60644531 18.05908203 C-386.66961942 6.66076115 -386.66961942 6.66076115 -390 0 C-387.04107532 0.37067848 -384.08286305 0.74597607 -381.125 1.125 C-379.62018066 1.31751343 -379.62018066 1.31751343 -378.08496094 1.51391602 C-371.25566587 2.40324067 -364.44301193 3.37061896 -357.6328125 4.39453125 C-339.41528594 7.12031486 -321.22034454 9.55697523 -302.875 11.25 C-302.0555188 11.32676971 -301.2360376 11.40353943 -300.39172363 11.4826355 C-295.25008371 11.95848532 -290.10596426 12.38082465 -284.9571228 12.77087402 C-282.93323439 12.92769044 -280.90998294 13.09289111 -278.88735962 13.26525879 C-252.81661857 15.4629087 -226.72745756 15.30797265 -200.58276367 15.26074219 C-194.21383442 15.24934238 -187.84507218 15.25612492 -181.47614861 15.26762009 C-155.91609757 15.30684694 -130.47245298 15.31749543 -105 13 C-103.243453 12.85200639 -101.486864 12.70451005 -99.73022461 12.55761719 C-95.31398755 12.1747 -90.90693161 11.7272972 -86.5 11.25 C-85.7322525 11.16862793 -84.964505 11.08725586 -84.17349243 11.00341797 C-62.69792214 8.70906246 -41.39784005 5.2255419 -20.09765625 1.69140625 C-18.92565674 1.49869141 -17.75365723 1.30597656 -16.54614258 1.10742188 C-14.41840479 0.75566195 -12.29182368 0.39679748 -10.16674805 0.02929688 C-9.25062744 -0.12345703 -8.33450684 -0.27621094 -7.390625 -0.43359375 C-6.60719727 -0.56822021 -5.82376953 -0.70284668 -5.01660156 -0.84155273 C-3 -1 -3 -1 0 0 Z " fill="#B1B8C1" transform="translate(684,538)"/>
<path d="M0 0 C0.78617706 -0.00524185 1.57235413 -0.0104837 2.38235474 -0.0158844 C4.05176618 -0.02231148 5.72122286 -0.0209587 7.390625 -0.01245117 C9.90190632 -0.00405144 12.41082509 -0.03250782 14.921875 -0.06445312 C29.21123084 -0.12700433 41.88327654 1.99083378 52.8203125 11.93359375 C53.5628125 12.75859375 54.3053125 13.58359375 55.0703125 14.43359375 C55.7715625 15.17609375 56.4728125 15.91859375 57.1953125 16.68359375 C62.52819228 24.50515076 63.11618895 33.17301782 62.0703125 42.43359375 C59.64774021 52.17069589 54.22311945 59.28297992 45.93359375 64.875 C44.35054862 65.79656988 42.71562463 66.62844101 41.0703125 67.43359375 C44.26565201 73.30727069 47.47729696 79.17115896 50.71875 85.01953125 C51.96133074 87.28233618 53.20351475 89.54535902 54.4453125 91.80859375 C55.08597656 92.95714844 55.72664062 94.10570312 56.38671875 95.2890625 C56.99128906 96.39636719 57.59585938 97.50367188 58.21875 98.64453125 C58.76708496 99.63759277 59.31541992 100.6306543 59.88037109 101.65380859 C61.11764419 104.54416385 61.453957 106.33041834 61.0703125 109.43359375 C58.83399049 111.92143364 57.31494551 112.39329023 54.01171875 112.9375 C52.33916016 112.96650391 52.33916016 112.96650391 50.6328125 112.99609375 C49.52035156 113.03863281 48.40789063 113.08117187 47.26171875 113.125 C43.01868319 112.20576219 41.46141127 109.83410092 39.0703125 106.43359375 C37.54934267 103.90530231 36.21461512 101.30374272 34.8984375 98.6640625 C34.53055115 97.94245438 34.16266479 97.22084625 33.78363037 96.47737122 C32.62192331 94.1955482 31.4707148 91.90863376 30.3203125 89.62109375 C29.15362392 87.31677573 27.98478675 85.01357155 26.81414795 82.71125793 C26.08911392 81.28368298 25.36674093 79.85475284 24.64727783 78.42436218 C23.16936617 75.21861241 23.16936617 75.21861241 21.0703125 72.43359375 C19.05436668 72.19931597 17.0318385 72.02023251 15.0078125 71.87109375 C13.35072266 71.74541016 13.35072266 71.74541016 11.66015625 71.6171875 C10.80550781 71.55660156 9.95085938 71.49601563 9.0703125 71.43359375 C9.08602295 72.53348633 9.1017334 73.63337891 9.11791992 74.76660156 C9.17226553 78.85165062 9.20667934 82.93666778 9.23510742 87.02197266 C9.25018352 88.78927994 9.27064772 90.55654989 9.29663086 92.32373047 C9.33306652 94.8656537 9.35005044 97.40708181 9.36328125 99.94921875 C9.37876511 100.73790344 9.39424896 101.52658813 9.41020203 102.33917236 C9.41120193 105.60668403 9.29244114 108.01185034 7.75512695 110.93066406 C5.06336787 113.3318333 2.59002598 112.9629247 -0.9296875 112.93359375 C-2.1671875 112.94390625 -3.4046875 112.95421875 -4.6796875 112.96484375 C-7.9296875 112.43359375 -7.9296875 112.43359375 -9.60900307 110.67833042 C-11.07869985 108.18032092 -11.30640435 106.8567072 -11.31063843 103.98655701 C-11.3190979 103.10190765 -11.32755737 102.2172583 -11.33627319 101.30580139 C-11.3302005 100.34306808 -11.32412781 99.38033478 -11.31787109 98.38842773 C-11.32312805 97.3685376 -11.32838501 96.34864746 -11.33380127 95.29785156 C-11.34701066 91.92497467 -11.33826026 88.55256923 -11.328125 85.1796875 C-11.3301453 82.83846445 -11.33305637 80.49724201 -11.33682251 78.15602112 C-11.34124702 73.24921681 -11.33480998 68.3425763 -11.32080078 63.43579102 C-11.30369958 57.13827463 -11.31355547 50.84114153 -11.33151817 44.54363918 C-11.34234443 39.70959063 -11.33891513 34.87563337 -11.3311348 30.04158211 C-11.32913008 27.71908587 -11.33160154 25.39658141 -11.33857346 23.07409477 C-11.34616976 19.83229393 -11.33460926 16.59111929 -11.31787109 13.34936523 C-11.32394379 12.3846077 -11.33001648 11.41985016 -11.33627319 10.42585754 C-11.32781372 9.54402802 -11.31935425 8.66219849 -11.31063843 7.75364685 C-11.30950735 6.9873014 -11.30837627 6.22095594 -11.30721092 5.4313879 C-10.17757629 -0.54645966 -5.01678888 -0.01955673 0 0 Z " fill="#016CED" transform="translate(703.9296875,686.56640625)"/>
<path d="M0 0 C0.97195313 -0.020625 1.94390625 -0.04125 2.9453125 -0.0625 C3.87859375 -0.06765625 4.811875 -0.0728125 5.7734375 -0.078125 C6.63114746 -0.0874707 7.48885742 -0.09681641 8.37255859 -0.10644531 C10.625 0.25 10.625 0.25 12.40991211 1.41040039 C14.12673031 4.00960174 13.96513373 5.91455186 13.91796875 9.01171875 C13.9034668 10.68911133 13.9034668 10.68911133 13.88867188 12.40039062 C13.86353516 13.56763672 13.83839844 14.73488281 13.8125 15.9375 C13.79219727 17.70577148 13.79219727 17.70577148 13.77148438 19.50976562 C13.73609326 22.42363411 13.68671809 25.33658945 13.625 28.25 C14.96461792 28.22643433 14.96461792 28.22643433 16.33129883 28.20239258 C19.64678756 28.15124561 22.96185675 28.11364188 26.27758789 28.08520508 C27.71222552 28.07012411 29.14681708 28.0496562 30.58129883 28.02368164 C32.64415859 27.98726563 34.70640858 27.97026757 36.76953125 27.95703125 C38.63121948 27.93346558 38.63121948 27.93346558 40.53051758 27.90942383 C43.625 28.25 43.625 28.25 45.52856445 29.55371094 C47.35311012 32.37645494 47.05603083 35.44082444 47 38.6875 C47.01160156 40.66556641 47.01160156 40.66556641 47.0234375 42.68359375 C46.5995461 46.47783737 46.34793193 47.67304544 43.625 50.25 C40.53051758 50.70410156 40.53051758 50.70410156 36.76953125 50.640625 C36.10789474 50.63496521 35.44625824 50.62930542 34.76457214 50.62347412 C32.65480668 50.60111247 30.54675048 50.55092371 28.4375 50.5 C27.00588394 50.4799344 25.5742412 50.46168372 24.14257812 50.4453125 C20.63616485 50.40125069 17.13074928 50.33222777 13.625 50.25 C13.68647506 57.91781291 13.76376846 65.58533208 13.86071491 73.25277615 C13.9052562 76.8139204 13.94454678 80.37495454 13.97143555 83.9362793 C14.00265655 88.03983669 14.05743778 92.14279699 14.11328125 96.24609375 C14.11967117 97.51206894 14.1260611 98.77804413 14.13264465 100.0823822 C14.24250904 106.74593282 14.39709315 113.25409635 17.625 119.25 C23.28814889 124.10306591 28.80120516 123.71510059 36 123.4375 C37.98688229 123.38548073 39.97386427 123.33709622 41.9609375 123.29296875 C42.83282715 123.26227295 43.7047168 123.23157715 44.60302734 123.19995117 C46.625 123.25 46.625 123.25 47.625 124.25 C47.92967105 127.3656292 47.90329403 130.49629362 47.9375 133.625 C47.98100586 134.93984375 47.98100586 134.93984375 48.02539062 136.28125 C48.08893473 142.67476501 48.08893473 142.67476501 45.98046875 145.2890625 C39.07368998 148.10675334 31.26249264 147.50518394 23.9375 147.5625 C22.72126953 147.59150391 21.50503906 147.62050781 20.25195312 147.65039062 C9.43513983 147.72587027 0.26735648 145.84362484 -7.72265625 138.1640625 C-16.15678563 128.39403083 -15.65931046 115.67112132 -15.5703125 103.49609375 C-15.56657551 101.984382 -15.56373179 100.47266781 -15.56173706 98.96095276 C-15.55415453 95.01049946 -15.53455326 91.06019668 -15.5123291 87.10980225 C-15.49175378 83.06736282 -15.48271052 79.02489873 -15.47265625 74.98242188 C-15.45130147 67.07154604 -15.41723175 59.16079182 -15.375 51.25 C-16.25542969 51.28480469 -17.13585937 51.31960938 -18.04296875 51.35546875 C-19.20441406 51.38253906 -20.36585938 51.40960937 -21.5625 51.4375 C-23.28533203 51.48970703 -23.28533203 51.48970703 -25.04296875 51.54296875 C-28.6794035 51.22323533 -30.4855914 50.43158273 -33.375 48.25 C-34.88429383 45.23141234 -34.60010073 42.12099046 -34.625 38.8125 C-34.645625 38.13123047 -34.66625 37.44996094 -34.6875 36.74804688 C-34.72688683 31.72130238 -34.72688683 31.72130238 -33.10522461 29.54931641 C-30.99973633 27.96819483 -29.96966054 27.89824074 -27.36328125 27.95703125 C-26.60595703 27.96669922 -25.84863281 27.97636719 -25.06835938 27.98632812 C-24.28267578 28.01146484 -23.49699219 28.03660156 -22.6875 28.0625 C-21.49157227 28.08280273 -21.49157227 28.08280273 -20.27148438 28.10351562 C-18.30570033 28.13882911 -16.34026418 28.19263553 -14.375 28.25 C-14.39071045 27.60973877 -14.4064209 26.96947754 -14.42260742 26.30981445 C-14.48517115 23.39413369 -14.52405808 20.47859445 -14.5625 17.5625 C-14.58763672 16.55509766 -14.61277344 15.54769531 -14.63867188 14.50976562 C-14.73020995 5.26441997 -14.73020995 5.26441997 -11.375 1.25 C-9.01278593 -1.11221407 -3.17140642 0.01669161 0 0 Z " fill="#172E47" transform="translate(485.375,668.75)"/>
<path d="M0 0 C1.15371094 -0.01998047 2.30742187 -0.03996094 3.49609375 -0.06054688 C5.15318359 -0.05958008 5.15318359 -0.05958008 6.84375 -0.05859375 C7.85630859 -0.06044678 8.86886719 -0.0622998 9.91210938 -0.06420898 C12.5 0.4375 12.5 0.4375 14.1368227 2.11372757 C15.82190352 4.98624046 15.88352233 6.7987772 15.89872742 10.11956787 C15.91753464 11.85692451 15.91753464 11.85692451 15.9367218 13.62937927 C15.93456917 15.52938438 15.93456917 15.52938438 15.93237305 17.46777344 C15.94139132 18.8181091 15.95171871 20.16843657 15.96325684 21.51875305 C15.99084566 25.18164411 16.00011384 28.84437991 16.00611091 32.50736141 C16.01548973 36.33645218 16.04169269 40.16542676 16.06611633 43.9944458 C16.10979863 51.24393807 16.13833492 58.49340782 16.16143972 65.74299169 C16.18848215 73.99692404 16.23239422 82.25073961 16.27772844 90.5045886 C16.37059948 107.48216563 16.44226891 124.45976787 16.5 141.4375 C17.89025391 141.42009766 17.89025391 141.42009766 19.30859375 141.40234375 C21.10490234 141.38880859 21.10490234 141.38880859 22.9375 141.375 C24.13246094 141.36339844 25.32742188 141.35179687 26.55859375 141.33984375 C29.5 141.4375 29.5 141.4375 30.5 142.4375 C30.77818549 145.7209318 30.73177691 149.01867732 30.75 152.3125 C30.770625 153.23675781 30.79125 154.16101563 30.8125 155.11328125 C30.82023437 156.44552734 30.82023437 156.44552734 30.828125 157.8046875 C30.8374707 158.62050293 30.84681641 159.43631836 30.85644531 160.27685547 C30.41264546 162.96701209 29.6442936 163.80007369 27.5 165.4375 C22.56590057 167.08219981 17.47949034 166.70583769 12.3125 166.75 C11.20068359 166.77900391 10.08886719 166.80800781 8.94335938 166.83789062 C0.87900631 166.89996084 -4.82065191 166.01740625 -10.8125 160.1875 C-15.84682445 151.98341571 -15.93312959 144.58236471 -15.88818359 135.17456055 C-15.89225421 133.73983868 -15.89759884 132.30511995 -15.90411377 130.8704071 C-15.91772883 126.99469096 -15.91251459 123.11921577 -15.90297651 119.2434957 C-15.89535701 115.18232836 -15.90243119 111.12118101 -15.90713501 107.06001282 C-15.91258279 100.24692087 -15.90542341 93.4339267 -15.89111328 86.62084961 C-15.87475582 78.74198661 -15.88010154 70.86335614 -15.8965925 62.98449868 C-15.91019621 56.21405027 -15.91213349 49.44367191 -15.90427649 42.67321426 C-15.89959803 38.63169495 -15.8989805 34.5902851 -15.90888596 30.54877281 C-15.91753833 26.75409958 -15.91156579 22.95972738 -15.89420319 19.16508675 C-15.89023044 17.77148311 -15.89138585 16.37785421 -15.89799118 14.98426056 C-15.90616397 13.08523451 -15.89410747 11.18615321 -15.88095093 9.28715515 C-15.87981985 8.22365687 -15.87868877 7.1601586 -15.87752342 6.0644331 C-15.5 3.4375 -15.5 3.4375 -14.13793373 1.59714985 C-10.32149014 -1.10487536 -4.48840837 -0.0275824 0 0 Z " fill="#172F48" transform="translate(291.5,649.5625)"/>
<path d="M0 0 C5.61 -0.0825 11.22 -0.165 17 -0.25 C18.75441406 -0.28641602 20.50882813 -0.32283203 22.31640625 -0.36035156 C23.73175845 -0.3720513 25.14712428 -0.38224007 26.5625 -0.390625 C27.27728516 -0.41108887 27.99207031 -0.43155273 28.72851562 -0.45263672 C34.18830467 -0.45635592 38.47167498 0.89347622 43 4 C48.16357396 10.48756728 48.20856128 15.74680478 48.25 23.6875 C48.270625 24.65623047 48.29125 25.62496094 48.3125 26.62304688 C48.34970649 33.50159623 47.79049195 39.32030984 43.4921875 44.98828125 C34.44526948 52.39626485 25.2903035 52.4040176 13.9375 52.1875 C9.338125 52.125625 4.73875 52.06375 0 52 C0 34.84 0 17.68 0 0 Z " fill="#EEEEEC" transform="translate(177,679)"/>
<path d="M0 0 C0.96803055 -0.0038269 1.9360611 -0.00765381 2.9334259 -0.01159668 C4.98012329 -0.0143147 7.02685549 -0.00696126 9.07348633 0.00976562 C12.17935435 0.03106024 15.28287837 0.0100203 18.38867188 -0.015625 C20.38411963 -0.01297943 22.37956593 -0.00784974 24.375 0 C25.29202194 -0.00809692 26.20904388 -0.01619385 27.15385437 -0.02453613 C35.16593344 0.08973634 41.65047515 2.30640163 48.33203125 6.71875 C56.46627746 15.23133325 56.7633484 23.15770904 56.56152344 34.42626953 C56.51926984 36.92168834 56.52049678 39.4144361 56.52734375 41.91015625 C56.51686268 43.50001877 56.50393043 45.08986745 56.48828125 46.6796875 C56.48797913 47.79529556 56.48797913 47.79529556 56.4876709 48.93344116 C56.37072687 54.01539944 56.37072687 54.01539944 54.6796875 56.49926758 C52.02204539 58.15130481 49.60201654 57.88887647 46.51953125 57.84375 C45.37484375 57.83988281 44.23015625 57.83601562 43.05078125 57.83203125 C40.01953125 57.53125 40.01953125 57.53125 37.01953125 55.53125 C36.71832844 53.0069564 36.60245648 50.71428895 36.61328125 48.1875 C36.60244507 47.46260376 36.59160889 46.73770752 36.58044434 45.99084473 C36.53446913 42.88442562 36.5230854 39.77808537 36.50830078 36.67138672 C36.49264207 34.40561842 36.45964815 32.14055723 36.42578125 29.875 C36.42880249 29.16976196 36.43182373 28.46452393 36.43493652 27.73791504 C36.43507504 25.54273172 36.43507504 25.54273172 36.01953125 22.53125 C32.908938 20.45752117 32.23021985 20.28169829 28.70336914 20.27587891 C27.40170555 20.26544052 27.40170555 20.26544052 26.07374573 20.25479126 C25.13933151 20.25578827 24.2049173 20.25678528 23.2421875 20.2578125 C21.26496827 20.23752591 19.28775477 20.21667517 17.31054688 20.1953125 C14.19208954 20.17269182 11.07385794 20.15623468 7.95532227 20.15039062 C4.94636193 20.14088139 1.9384202 20.10712493 -1.0703125 20.0703125 C-2.00270248 20.07535797 -2.93509247 20.08040344 -3.89573669 20.08560181 C-10.34948451 19.98731854 -10.34948451 19.98731854 -13.56445312 17.66357422 C-15.35191863 14.97189772 -15.54738914 13.24929354 -15.54296875 10.03125 C-15.56488281 9.0928125 -15.58679688 8.154375 -15.609375 7.1875 C-14.98046875 4.53125 -14.98046875 4.53125 -13.06494141 2.3984375 C-8.69800502 -0.24509024 -5.01497196 -0.04379674 0 0 Z " fill="#0073EF" transform="translate(737.98046875,644.46875)"/>
<path d="M0 0 C1.1446875 -0.01675781 2.289375 -0.03351562 3.46875 -0.05078125 C6.5 0.3125 6.5 0.3125 8.15795898 1.37402344 C10.17885874 4.29306001 9.98746684 7.25993365 10.00390625 10.69140625 C10.01389145 11.4181102 10.02387665 12.14481415 10.03416443 12.89353943 C10.04935088 14.4342582 10.05639005 15.9750756 10.0559082 17.51586914 C10.06241249 19.84368293 10.11670901 22.16709313 10.17382812 24.49414062 C10.29080946 34.90317177 8.50348054 41.8801497 1.3125 49.6875 C-9.43714021 55.89840323 -19.73985403 55.93683104 -31.85400391 55.83398438 C-34.88914531 55.8123994 -37.92195858 55.83393186 -40.95703125 55.859375 C-42.89583853 55.85673415 -44.83464437 55.8516142 -46.7734375 55.84375 C-48.12663589 55.85589539 -48.12663589 55.85589539 -49.50717163 55.86828613 C-53.66115311 55.80630488 -55.9442625 55.64778184 -59.56860352 53.46118164 C-62.10729068 50.63688816 -62.1416198 49.00586358 -62.0625 45.25 C-62.06378906 44.20714844 -62.06507813 43.16429687 -62.06640625 42.08984375 C-61.5 39.3125 -61.5 39.3125 -60.08398438 37.66430664 C-56.04493612 35.55128603 -52.0814494 35.89169577 -47.58984375 35.90625 C-46.144067 35.88999573 -46.144067 35.88999573 -44.66908264 35.87341309 C-40.54791113 35.82752426 -36.42680134 35.81604726 -32.30541992 35.80126953 C-29.29583099 35.78560818 -26.28677381 35.7526174 -23.27734375 35.71875 C-22.34292953 35.72177124 -21.40851532 35.72479248 -20.44578552 35.72790527 C-19.5780098 35.71779419 -18.71023407 35.70768311 -17.81616211 35.69726562 C-17.05323349 35.69521118 -16.29030487 35.69315674 -15.5042572 35.69104004 C-12.94033378 35.20679696 -12.05490261 34.37949278 -10.5 32.3125 C-10.04087051 29.14864321 -10.04087051 29.14864321 -10.09375 25.52734375 C-10.08291382 24.87045059 -10.07207764 24.21355743 -10.06091309 23.53675842 C-10.015047 20.72989997 -10.0035424 17.92313317 -9.98876953 15.1159668 C-9.9731098 13.06525436 -9.94012426 11.01532287 -9.90625 8.96484375 C-9.89916016 7.73757568 -9.89207031 6.51030762 -9.88476562 5.24584961 C-9.75779297 4.27784424 -9.63082031 3.30983887 -9.5 2.3125 C-5.94223788 -0.05934142 -4.21979393 0.01425606 0 0 Z " fill="#036CED" transform="translate(784.5,788.6875)"/>
<path d="M0 0 C0.95108643 -0.00637985 1.90217285 -0.0127597 2.88208008 -0.01933289 C3.90712646 -0.02044571 4.93217285 -0.02155853 5.98828125 -0.02270508 C7.04233154 -0.02603348 8.09638184 -0.02936188 9.18237305 -0.03279114 C11.41161665 -0.03785516 13.64086784 -0.04019962 15.87011719 -0.04003906 C19.28723562 -0.04222765 22.70403236 -0.06039484 26.12109375 -0.0793457 C28.28515514 -0.08227926 30.44921807 -0.08426431 32.61328125 -0.08520508 C33.63832764 -0.09239059 34.66337402 -0.09957611 35.71948242 -0.10697937 C36.67056885 -0.10390274 37.62165527 -0.10082611 38.6015625 -0.09765625 C39.43856689 -0.09908127 40.27557129 -0.10050629 41.13793945 -0.10197449 C43.30078125 0.14526367 43.30078125 0.14526367 46.30078125 2.14526367 C46.69921875 5.33276367 46.69921875 5.33276367 46.67578125 9.14526367 C46.68738281 11.03245117 46.68738281 11.03245117 46.69921875 12.95776367 C46.56773437 14.00963867 46.43625 15.06151367 46.30078125 16.14526367 C43.2262798 18.1949313 42.53986631 18.40030858 39.06054688 18.44824219 C37.78407288 18.47320518 37.78407288 18.47320518 36.48181152 18.49867249 C35.56613403 18.50708664 34.65045654 18.51550079 33.70703125 18.52416992 C32.29242615 18.54966164 32.29242615 18.54966164 30.84924316 18.57566833 C27.83315742 18.62883631 24.81708516 18.66910542 21.80078125 18.70776367 C18.78454842 18.75170338 15.76842184 18.79843177 12.75231934 18.85057068 C10.87487755 18.88249826 8.99734223 18.90939755 7.11975098 18.93080139 C6.26876831 18.94429123 5.41778564 18.95778107 4.54101562 18.97167969 C3.41874573 18.98594749 3.41874573 18.98594749 2.27380371 19.00050354 C0.08794863 19.07956233 0.08794863 19.07956233 -2.69921875 20.14526367 C-2.71380127 21.12922119 -2.72838379 22.11317871 -2.7434082 23.12695312 C-2.80138873 26.77820141 -2.8786206 30.42883278 -2.96166992 34.07958984 C-2.99492063 35.6595661 -3.02295221 37.23966119 -3.0456543 38.81982422 C-3.07919891 41.09157946 -3.13151102 43.3622457 -3.1875 45.63354492 C-3.19708488 46.69307121 -3.19708488 46.69307121 -3.2068634 47.77400208 C-3.29331746 50.65865564 -3.37669467 52.67810523 -5.04174805 55.08984375 C-7.69117693 56.77690828 -10.10482069 56.54117177 -13.19921875 56.52026367 C-14.91625 56.53186523 -14.91625 56.53186523 -16.66796875 56.54370117 C-19.69921875 56.14526367 -19.69921875 56.14526367 -21.36157227 55.13134766 C-23.47798208 51.98898704 -23.14668823 48.63274624 -23.1328125 44.96948242 C-23.13805435 44.16670364 -23.1432962 43.36392487 -23.1486969 42.53681946 C-23.155119 40.83803462 -23.15377763 39.13920533 -23.14526367 37.44042969 C-23.13678274 34.85229242 -23.16546212 32.2663843 -23.19726562 29.6784668 C-23.1988786 28.02547266 -23.19829827 26.37247465 -23.1953125 24.71948242 C-23.20654648 23.95053146 -23.21778046 23.18158051 -23.22935486 22.389328 C-23.14542089 15.85216516 -20.69949056 12.3560904 -16.32421875 7.52026367 C-11.23904698 2.91939398 -6.92021238 0.03151531 0 0 Z " fill="#026AED" transform="translate(603.69921875,645.854736328125)"/>
<path d="M0 0 C4.49765084 3.48504652 8.27536901 7.5217604 10 13 C10.8660651 20.34695673 10.5845294 26.42354761 6.875 32.90234375 C2.28541838 38.03693818 -1.694605 41.263924 -8.75 41.83203125 C-10.83319365 41.85701905 -12.91699188 41.84988072 -15 41.8125 C-16.0415625 41.84408203 -17.083125 41.87566406 -18.15625 41.90820312 C-24.92934409 41.87827152 -28.59638655 40.6494321 -33.43383789 35.86279297 C-38.14796605 30.25580967 -40.47358714 24.65927083 -40.3359375 17.28125 C-39.40070882 10.93039477 -36.18251777 5.53289874 -31.1875 1.5625 C-20.95271766 -5.20318945 -10.88745908 -6.13656785 0 0 Z " fill="#EEEDEC" transform="translate(502,81)"/>
<path d="M0 0 C1.80597656 0.01353516 1.80597656 0.01353516 3.6484375 0.02734375 C6.5991679 0.05076225 9.54947689 0.08356007 12.5 0.125 C12.70439826 3.66580671 12.82797882 7.20509007 12.9375 10.75 C12.99615234 11.74902344 13.05480469 12.74804688 13.11523438 13.77734375 C13.28392074 21.05495549 13.28392074 21.05495549 11.05786133 24.09350586 C9.28189958 25.649761 7.52321113 26.91200303 5.5 28.125 C4.74332031 28.59550781 3.98664063 29.06601562 3.20703125 29.55078125 C2.58183594 29.84339844 1.95664062 30.13601563 1.3125 30.4375 C0.67957031 30.74300781 0.04664063 31.04851563 -0.60546875 31.36328125 C-5.17442216 33.20028314 -9.54969687 33.33935513 -14.4375 33.375 C-15.14068359 33.395625 -15.84386719 33.41625 -16.56835938 33.4375 C-21.09485413 33.47143811 -23.89312053 32.88202104 -27.5 30.125 C-31.64263859 25.3905559 -31.84955301 20.93318706 -31.77734375 14.8515625 C-31.24593724 9.62731255 -28.66999241 7.08226652 -24.75 3.875 C-16.76086442 -0.42684223 -8.86572473 -0.12665321 0 0 Z " fill="#EFEEEC" transform="translate(395.5,761.875)"/>
<path d="M0 0 C19.92604502 0 19.92604502 0 27 4 C30.74830805 7.74830805 32.16197988 10.52140641 32.3125 15.75 C32.24230498 21.83941812 30.03758439 24.77139207 26 29.1875 C17.79319388 34.14577869 9.45465843 34 0 34 C0 22.78 0 11.56 0 0 Z " fill="#EEEEEA" transform="translate(713,706)"/>
<path d="M0 0 C3.05070552 1.52535276 3.21529934 3.81340481 4.34765625 6.9765625 C4.78787109 8.20503906 5.22808594 9.43351563 5.68164062 10.69921875 C5.90827393 11.3442334 6.13490723 11.98924805 6.3684082 12.65380859 C7.05365561 14.5998823 7.75339366 16.54027043 8.45507812 18.48046875 C10.58798144 24.48767663 12.08862939 29.6204057 13 36 C4.75 36 -3.5 36 -12 36 C-10.87392297 28.11746079 -10.87392297 28.11746079 -9.51171875 24.2578125 C-9.21716797 23.41863281 -8.92261719 22.57945312 -8.61914062 21.71484375 C-8.15797852 20.43287109 -8.15797852 20.43287109 -7.6875 19.125 C-7.39166016 18.27808594 -7.09582031 17.43117188 -6.79101562 16.55859375 C-4.78891884 10.9112106 -2.51338336 5.4383919 0 0 Z " fill="#EDEFEA" transform="translate(636,719)"/>
<path d="M0 0 C0 49.17 0 98.34 0 149 C-3 146 -3 146 -3.36914349 143.36633778 C-3.36637811 142.29982329 -3.36361273 141.23330881 -3.36076355 140.13447571 C-3.36488754 138.91029938 -3.36901154 137.68612305 -3.3732605 136.42485046 C-3.3626431 135.06619043 -3.35173868 133.70753262 -3.34057617 132.34887695 C-3.33973006 130.91988137 -3.34020473 129.49088448 -3.34190369 128.06188965 C-3.3427657 124.17984581 -3.32510675 120.29807912 -3.30418181 116.41609979 C-3.2854493 112.36019302 -3.28366728 108.30428015 -3.28010559 104.24833679 C-3.27077503 96.56665201 -3.24614762 88.88509505 -3.21605712 81.20346659 C-3.18254452 72.45872049 -3.16603501 63.71396834 -3.15097082 54.96917403 C-3.11959891 36.97937683 -3.06681882 18.98969869 -3 1 C-1 0 -1 0 0 0 Z " fill="#DEDFE0" transform="translate(276,652)"/>
<path d="M0 0 C3 1 3 1 4 3 C4.10529538 4.81156199 4.14660771 6.62697647 4.15821838 8.44155884 C4.1680072 9.59704727 4.17779602 10.75253571 4.18788147 11.94303894 C4.19363693 13.21689957 4.1993924 14.49076019 4.20532227 15.80322266 C4.21489869 17.15325726 4.22490863 18.50328885 4.23532104 19.85331726 C4.26240179 23.5245501 4.28339415 27.19579584 4.30332303 30.86707354 C4.32516307 34.70147596 4.35256144 38.53583848 4.37937927 42.37020874 C4.42933301 49.63393522 4.47426187 56.89768381 4.51740164 64.1614536 C4.56675112 72.42980911 4.62167772 80.69812459 4.67708123 88.96644139 C4.79094243 105.97759062 4.89777244 122.98877697 5 140 C8.3 140.33 11.6 140.66 15 141 C15 141.33 15 141.66 15 142 C13.23050905 142.10815225 11.45912513 142.18566083 9.6875 142.25 C8.70136719 142.29640625 7.71523438 142.3428125 6.69921875 142.390625 C4 142 4 142 2.35342598 140.3275013 C0.68474095 137.4578456 0.63246996 135.67876042 0.64596558 132.36935425 C0.64328674 131.22242096 0.64060791 130.07548767 0.6378479 128.89379883 C0.65020477 127.63962158 0.66256165 126.38544434 0.67529297 125.09326172 C0.67777692 123.75603409 0.67892338 122.41880341 0.67883301 121.08157349 C0.68224285 117.45355846 0.70399946 113.82585424 0.72874975 110.19793081 C0.7512307 106.40322881 0.75592156 102.60850846 0.76223755 98.81375122 C0.77672378 91.62675489 0.80565575 84.43989842 0.84048474 77.25297463 C0.90243185 64.37337202 0.93995515 51.49368527 0.97207749 38.61397755 C0.98392973 34.09183844 1.00213476 29.56978067 1.02559257 25.04768729 C1.03939157 22.23967887 1.04925778 19.43166573 1.05822754 16.62363815 C1.06573823 14.69412363 1.07835404 12.76463112 1.09109497 10.83514404 C1.09405579 9.6938504 1.0970166 8.55255676 1.10006714 7.37667847 C1.10488539 6.38080656 1.10970364 5.38493465 1.11466789 4.35888481 C1.1579336 1.97981856 1.1579336 1.97981856 0 0 Z " fill="#283747" transform="translate(303,651)"/>
<path d="M0 0 C0.96803055 -0.0038269 1.9360611 -0.00765381 2.9334259 -0.01159668 C4.98012329 -0.0143147 7.02685549 -0.00696126 9.07348633 0.00976562 C12.17935435 0.03106024 15.28287837 0.0100203 18.38867188 -0.015625 C20.38411963 -0.01297943 22.37956593 -0.00784974 24.375 0 C25.29202194 -0.00809692 26.20904388 -0.01619385 27.15385437 -0.02453613 C35.16593344 0.08973634 41.65047515 2.30640163 48.33203125 6.71875 C56.46627746 15.23133325 56.7633484 23.15770904 56.56152344 34.42626953 C56.51926984 36.92168834 56.52049678 39.4144361 56.52734375 41.91015625 C56.51686268 43.50001877 56.50393043 45.08986745 56.48828125 46.6796875 C56.48797913 47.79529556 56.48797913 47.79529556 56.4876709 48.93344116 C56.37072687 54.01539944 56.37072687 54.01539944 54.6796875 56.49926758 C52.02204539 58.15130481 49.60201654 57.88887647 46.51953125 57.84375 C45.37484375 57.83988281 44.23015625 57.83601562 43.05078125 57.83203125 C40.01953125 57.53125 40.01953125 57.53125 37.01953125 55.53125 C36.71832844 53.0069564 36.60245648 50.71428895 36.61328125 48.1875 C36.60244507 47.46260376 36.59160889 46.73770752 36.58044434 45.99084473 C36.53446913 42.88442562 36.5230854 39.77808537 36.50830078 36.67138672 C36.49264207 34.40561842 36.45964815 32.14055723 36.42578125 29.875 C36.42880249 29.16976196 36.43182373 28.46452393 36.43493652 27.73791504 C36.43507504 25.54273172 36.43507504 25.54273172 36.01953125 22.53125 C32.908938 20.45752117 32.23021985 20.28169829 28.70336914 20.27587891 C27.40170555 20.26544052 27.40170555 20.26544052 26.07374573 20.25479126 C25.13933151 20.25578827 24.2049173 20.25678528 23.2421875 20.2578125 C21.26496827 20.23752591 19.28775477 20.21667517 17.31054688 20.1953125 C14.19208954 20.17269182 11.07385794 20.15623468 7.95532227 20.15039062 C4.94636193 20.14088139 1.9384202 20.10712493 -1.0703125 20.0703125 C-2.00270248 20.07535797 -2.93509247 20.08040344 -3.89573669 20.08560181 C-10.34948451 19.98731854 -10.34948451 19.98731854 -13.56445312 17.66357422 C-15.35191863 14.97189772 -15.54738914 13.24929354 -15.54296875 10.03125 C-15.56488281 9.0928125 -15.58679688 8.154375 -15.609375 7.1875 C-14.98046875 4.53125 -14.98046875 4.53125 -13.06494141 2.3984375 C-8.69800502 -0.24509024 -5.01497196 -0.04379674 0 0 Z M-12.98046875 4.53125 C-13.22386426 7.43008083 -13.22386426 7.43008083 -13.10546875 10.65625 C-13.08742188 11.75195312 -13.069375 12.84765625 -13.05078125 13.9765625 C-13.02757812 14.81960938 -13.004375 15.66265625 -12.98046875 16.53125 C-10.07126393 18.18471234 -7.96409003 18.78573868 -4.62670898 18.81835938 C-3.77580185 18.83177368 -2.92489471 18.84518799 -2.04820251 18.85900879 C-1.13768631 18.86428589 -0.2271701 18.86956299 0.7109375 18.875 C2.12342018 18.8969342 2.12342018 18.8969342 3.56443787 18.91931152 C7.58994173 18.98154234 11.6155976 19.02122395 15.64135742 19.06298828 C18.58138186 19.0966862 21.52107913 19.14180101 24.4609375 19.1875 C25.82974815 19.19541565 25.82974815 19.19541565 27.22621155 19.20349121 C28.07396652 19.21690552 28.9217215 19.23031982 29.79516602 19.24414062 C30.54032974 19.25143188 31.28549347 19.25872314 32.05323792 19.26623535 C34.01953125 19.53125 34.01953125 19.53125 37.01953125 21.53125 C37.32073406 24.0555436 37.43660602 26.34821105 37.42578125 28.875 C37.43661743 29.59989624 37.44745361 30.32479248 37.45861816 31.07165527 C37.50459337 34.17807438 37.5159771 37.28441463 37.53076172 40.39111328 C37.54642043 42.65688158 37.57941435 44.92194277 37.61328125 47.1875 C37.61026001 47.89273804 37.60723877 48.59797607 37.60412598 49.32458496 C37.60398746 51.51976828 37.60398746 51.51976828 38.01953125 54.53125 C41.38304138 56.77359009 42.64263181 56.80223215 46.58203125 56.78125 C48.03802734 56.78898438 48.03802734 56.78898438 49.5234375 56.796875 C52.19246062 56.77719496 52.19246062 56.77719496 54.01953125 54.53125 C54.26874075 51.83959864 54.39604891 49.25477767 54.42578125 46.55859375 C54.44288147 45.36297569 54.44288147 45.36297569 54.46032715 44.14320374 C54.47924321 42.45107334 54.49230154 40.758869 54.5 39.06665039 C54.51928079 36.50206387 54.58123306 33.94077715 54.64453125 31.37695312 C54.82206756 19.96994065 54.82206756 19.96994065 49.80273438 9.93188477 C47.5947224 8.19757963 45.77561316 7.87810584 43.01953125 7.53125 C42.52453125 6.04625 42.52453125 6.04625 42.01953125 4.53125 C38.65729357 2.78371414 35.83490893 2.27961634 32.07739258 2.27246094 C31.12322952 2.26615662 30.16906647 2.25985229 29.18598938 2.25335693 C28.16812851 2.2574054 27.15026764 2.26145386 26.1015625 2.265625 C24.52117439 2.26275482 24.52117439 2.26275482 22.90885925 2.25982666 C20.68736532 2.25846814 18.46586336 2.26214127 16.24438477 2.27050781 C12.83396748 2.2812439 9.42407315 2.27058462 6.01367188 2.2578125 C3.85546758 2.25913352 1.69726362 2.26169474 -0.4609375 2.265625 C-1.48487106 2.26157654 -2.50880463 2.25752808 -3.56376648 2.25335693 C-4.98082634 2.26281342 -4.98082634 2.26281342 -6.42651367 2.27246094 C-7.67630257 2.27484772 -7.67630257 2.27484772 -8.95133972 2.27728271 C-11.20722285 2.34879364 -11.20722285 2.34879364 -12.98046875 4.53125 Z " fill="#1544E1" transform="translate(737.98046875,644.46875)"/>
<path d="M0 0 C0.86753906 -0.01998047 1.73507812 -0.03996094 2.62890625 -0.06054688 C3.87994141 -0.05958008 3.87994141 -0.05958008 5.15625 -0.05859375 C6.29803711 -0.06137329 6.29803711 -0.06137329 7.46289062 -0.06420898 C9.5 0.4375 9.5 0.4375 11.07714844 1.9296875 C13.09430437 5.48497675 14.32519171 9.18723958 15.609375 13.05859375 C15.89727905 13.9071846 16.18518311 14.75577545 16.48181152 15.63008118 C17.41153695 18.3760818 18.33085178 21.12544296 19.25 23.875 C19.88315622 25.75119025 20.51694555 27.62716696 21.15136719 29.50292969 C22.94421635 34.81113189 24.72467085 40.12341558 26.5 45.4375 C26.72655273 46.11540588 26.95310547 46.79331177 27.18652344 47.49176025 C30.20292196 56.52159703 30.20292196 56.52159703 31.54589844 60.61108398 C32.50888979 63.53566389 33.47849082 66.38930854 34.734375 69.203125 C35.62176314 71.79284957 35.25523672 72.87292612 34.5 75.4375 C28.01080881 58.32228288 21.96331351 41.09804036 16.3125 23.6875 C16.0210611 22.79248779 15.72962219 21.89747559 15.42935181 20.9753418 C14.60117165 18.42756337 13.77791086 15.87826392 12.95703125 13.328125 C12.70755737 12.55861511 12.4580835 11.78910522 12.2010498 10.99627686 C10.5 5.67079484 10.5 5.67079484 10.5 3.4375 C6.80986037 2.20745346 3.34579516 2.17632289 -0.5 2.125 C-1.22445312 2.09599609 -1.94890625 2.06699219 -2.6953125 2.03710938 C-6.81127926 1.97059375 -6.81127926 1.97059375 -10.3125 3.89453125 C-11.34780499 6.11158239 -12.13739327 8.23852307 -12.90063477 10.55761719 C-13.16498322 11.35992264 -13.42933167 12.16222809 -13.70169067 12.98884583 C-14.90363618 16.67557324 -16.09381539 20.36591716 -17.27734375 24.05859375 C-17.79603564 25.6699825 -18.31492182 27.28130873 -18.83398438 28.89257812 C-19.63645683 31.38428574 -20.43791463 33.87629511 -21.23608398 36.36938477 C-26.43271985 52.59267734 -26.43271985 52.59267734 -29.60375977 60.20727539 C-31.27943898 64.37707371 -32.61742794 68.66352153 -34 72.9375 C-36.24801269 79.88683604 -38.70828538 86.68662647 -41.5 93.4375 C-42.59811631 90.15350848 -42.40518342 88.31546969 -41.25927734 85.07250977 C-40.81089508 83.77868629 -40.81089508 83.77868629 -40.35345459 82.45872498 C-40.01767395 81.5248848 -39.68189331 80.59104462 -39.3359375 79.62890625 C-38.99210022 78.64604141 -38.64826294 77.66317657 -38.29400635 76.65052795 C-37.16460117 73.42996885 -36.02015786 70.21498805 -34.875 67 C-34.09466662 64.78790568 -33.31521235 62.57550106 -32.53662109 60.36279297 C-30.95823002 55.88061808 -29.37425919 51.40046683 -27.78710938 46.92138672 C-25.68590524 40.98041141 -23.62523415 35.02619786 -21.578125 29.06640625 C-20.70313671 26.53041947 -19.82728133 23.99473436 -18.95098877 21.459198 C-18.40245945 19.86757936 -17.85649868 18.27507308 -17.31317139 16.68167114 C-16.56319156 14.4854178 -15.80251084 12.29316352 -15.0390625 10.1015625 C-14.61834473 8.87904785 -14.19762695 7.6565332 -13.76416016 6.39697266 C-10.76714706 -0.61920981 -6.95823292 -0.0568652 0 0 Z " fill="#0E45E3" transform="translate(636.5,685.5625)"/>
<path d="M0 0 C10.89 0 21.78 0 33 0 C28.87485791 2.06257104 27.18199862 2.23756602 22.703125 2.1953125 C20.89521484 2.18564453 20.89521484 2.18564453 19.05078125 2.17578125 C17.16939453 2.15064453 17.16939453 2.15064453 15.25 2.125 C13.98027344 2.11597656 12.71054688 2.10695313 11.40234375 2.09765625 C8.26803907 2.07409005 5.13411459 2.04118832 2 2 C2.00222061 2.65954681 2.00444122 3.31909363 2.00672913 3.99862671 C2.02879894 10.84380554 2.04391373 17.68897432 2.05493164 24.53417969 C2.05997017 27.09115001 2.06680107 29.64811743 2.07543945 32.20507812 C2.08752602 35.87370517 2.09323301 39.54229423 2.09765625 43.2109375 C2.10281754 44.35992523 2.10797882 45.50891296 2.11329651 46.69271851 C2.11337204 47.7536673 2.11344757 48.81461609 2.11352539 49.90771484 C2.115746 50.84481293 2.11796661 51.78191101 2.12025452 52.74740601 C2 55 2 55 1 57 C0.34 56.67 -0.32 56.34 -1 56 C-0.67 37.52 -0.34 19.04 0 0 Z " fill="#FBFCFB" transform="translate(177,756)"/>
<path d="M0 0 C3 3 3 3 3.34057617 5.36010742 C3.32486572 6.26607666 3.30915527 7.1720459 3.29296875 8.10546875 C3.28330078 9.08837891 3.27363281 10.07128906 3.26367188 11.08398438 C3.23853516 12.10814453 3.21339844 13.13230469 3.1875 14.1875 C3.16719727 15.74114258 3.16719727 15.74114258 3.14648438 17.32617188 C3.11111389 19.88463699 3.06175544 22.4420578 3 25 C3.76143311 24.98428955 4.52286621 24.9685791 5.30737305 24.95239258 C8.7673394 24.88991547 12.2271869 24.85096828 15.6875 24.8125 C16.88568359 24.78736328 18.08386719 24.76222656 19.31835938 24.73632812 C20.47529297 24.72666016 21.63222656 24.71699219 22.82421875 24.70703125 C23.88729248 24.6913208 24.95036621 24.67561035 26.0456543 24.65942383 C29.42205831 25.04865477 31.2672556 26.01843364 34 28 C36.49311867 31.37392107 36.2067522 34.66239024 36.125 38.75 C36.10695313 39.92046875 36.08890625 41.0909375 36.0703125 42.296875 C36.04710937 43.18890625 36.02390625 44.0809375 36 45 C35.34 45 34.68 45 34 45 C33.95101562 43.94039062 33.90203125 42.88078125 33.8515625 41.7890625 C33.77653291 40.40101503 33.70098515 39.01299549 33.625 37.625 C33.57859375 36.57699219 33.57859375 36.57699219 33.53125 35.5078125 C33.40500502 31.29814173 33.40500502 31.29814173 31 28 C27.89243985 27.62677573 27.89243985 27.62677573 24.2421875 27.5859375 C23.57913605 27.56657135 22.91608459 27.5472052 22.23294067 27.5272522 C20.11375823 27.46744046 17.9945215 27.42106612 15.875 27.375 C14.43877831 27.33682155 13.00257955 27.29776989 11.56640625 27.2578125 C8.04438971 27.16009181 4.52261928 27.08054124 1 27 C0.67 18.09 0.34 9.18 0 0 Z " fill="#FAFAFA" transform="translate(498,670)"/>
<path d="M0 0 C7.11793001 1.7794825 12.55803644 5.55251193 16.7265625 11.5546875 C20.63465958 18.89479487 19.52103392 27.49577834 19.3125 35.5625 C19.28738127 37.25582638 19.26457442 38.94918873 19.24414062 40.64257812 C19.18943743 44.76261695 19.10336695 48.88090655 19 53 C18.67 53 18.34 53 18 53 C17.15211024 48.58608481 16.87722417 44.4055085 16.859375 39.9140625 C16.84104926 38.55727485 16.82147915 37.20050354 16.80078125 35.84375 C16.77187505 33.73506756 16.75000057 31.62744799 16.74951172 29.51855469 C16.86288327 17.78047021 16.86288327 17.78047021 11 8 C8.47627099 6.63921965 8.47627099 6.63921965 6 6 C4.9805881 5.01979625 3.97753644 4.02196992 3 3 C2.01 2.67 1.02 2.34 0 2 C0 1.34 0 0.68 0 0 Z " fill="#0751E7" transform="translate(775,646)"/>
<path d="M0 0 C-1 2 -1 2 -3.5 3.125 C-7.7556796 4.1889199 -11.64144777 4.17434209 -16 4 C-16 4.33 -16 4.66 -16 5 C-17.17369141 4.98259766 -17.17369141 4.98259766 -18.37109375 4.96484375 C-19.38300781 4.95582031 -20.39492188 4.94679688 -21.4375 4.9375 C-22.95150391 4.92009766 -22.95150391 4.92009766 -24.49609375 4.90234375 C-26.94021067 4.71387324 -26.94021067 4.71387324 -28 6 C-29.85287502 6.07226502 -31.70833878 6.0838122 -33.5625 6.0625 C-34.57441406 6.05347656 -35.58632813 6.04445313 -36.62890625 6.03515625 C-37.41136719 6.02355469 -38.19382812 6.01195312 -39 6 C-38.67 5.01 -38.34 4.02 -38 3 C-33.39211197 2.56983384 -28.78395837 2.14267725 -24.17553711 1.71826172 C-22.60905492 1.57357373 -21.04264737 1.42807522 -19.47631836 1.28173828 C-17.22008263 1.07108941 -14.96359126 0.86339256 -12.70703125 0.65625 C-12.01100296 0.59062866 -11.31497467 0.52500732 -10.59785461 0.45739746 C-7.05259084 0.13491642 -3.56008121 -0.07234712 0 0 Z " fill="#E5E7E8" transform="translate(567,595)"/>
<path d="M0 0 C-3.76225077 2.03712549 -7.53604956 4.05183781 -11.3125 6.0625 C-12.38435547 6.64322266 -13.45621094 7.22394531 -14.56054688 7.82226562 C-15.58857422 8.36689453 -16.61660156 8.91152344 -17.67578125 9.47265625 C-18.62364502 9.98062744 -19.57150879 10.48859863 -20.5480957 11.01196289 C-23 12 -23 12 -26 11 C-23.36 9.68 -20.72 8.36 -18 7 C-18 6.34 -18 5.68 -18 5 C-20.97 4.505 -20.97 4.505 -24 4 C-21.70845689 1.70845689 -20.86797121 1.60724993 -17.75390625 1.11328125 C-16.91666016 0.97986328 -16.07941406 0.84644531 -15.21679688 0.70898438 C-14.34087891 0.57814453 -13.46496094 0.44730469 -12.5625 0.3125 C-11.69044922 0.17005859 -10.81839844 0.02761719 -9.91992188 -0.11914062 C-3.3858817 -1.12862723 -3.3858817 -1.12862723 0 0 Z " fill="#CED3D8" transform="translate(684,538)"/>
<path d="M0 0 C16.17 0 32.34 0 49 0 C49 0.33 49 0.66 49 1 C51.31 1.33 53.62 1.66 56 2 C56 2.33 56 2.66 56 3 C46.43 3 36.86 3 27 3 C27 2.67 27 2.34 27 2 C18.09 1.67 9.18 1.34 0 1 C0 0.67 0 0.34 0 0 Z " fill="#A6AEB7" transform="translate(460,576)"/>
<path d="M0 0 C1.10677083 1.13932292 2.21354167 2.27864583 3.3203125 3.41796875 C3.87460937 3.94003906 4.42890625 4.46210937 5 5 C6.19882812 6.31291016 6.19882812 6.31291016 7.421875 7.65234375 C11.97726977 11.40966704 17.52322802 10.56955256 23.125 10.375 C24.20910156 10.36082031 25.29320312 10.34664062 26.41015625 10.33203125 C32.78028099 10.23520835 32.78028099 10.23520835 39 9 C39 9.99 39 10.98 39 12 C33.94392404 13.46492023 28.85109039 13.26374916 23.625 13.3125 C22.59632813 13.34150391 21.56765625 13.37050781 20.5078125 13.40039062 C14.44972295 13.45113493 10.75117085 13.15353929 6 9 C5.37351562 8.47277344 4.74703125 7.94554688 4.1015625 7.40234375 C2.67771961 5.9898012 1.33642227 4.49552016 0 3 C0 2.01 0 1.02 0 0 Z " fill="#091322" transform="translate(464,111)"/>
<path d="M0 0 C14.19 0 28.38 0 43 0 C40 3 40 3 37.82348633 3.34057617 C37.00130615 3.32486572 36.17912598 3.30915527 35.33203125 3.29296875 C34.43935547 3.28330078 33.54667969 3.27363281 32.62695312 3.26367188 C31.23379883 3.2259668 31.23379883 3.2259668 29.8125 3.1875 C28.87212891 3.17396484 27.93175781 3.16042969 26.96289062 3.14648438 C24.64134962 3.11113096 22.32096347 3.06178674 20 3 C20 2.34 20 1.68 20 1 C13.4 1 6.8 1 0 1 C0 0.67 0 0.34 0 0 Z " fill="#E5E6E7" transform="translate(489,466)"/>
<path d="M0 0 C1.67316284 0.02356567 1.67316284 0.02356567 3.38012695 0.04760742 C5.19287109 0.06210937 5.19287109 0.06210937 7.04223633 0.0769043 C8.93619141 0.11460937 8.93619141 0.11460937 10.8684082 0.15307617 C12.77976562 0.17337891 12.77976562 0.17337891 14.72973633 0.1940918 C17.88054878 0.22949418 21.03051865 0.27887827 24.1809082 0.34057617 C24.5109082 1.33057617 24.8409082 2.32057617 25.1809082 3.34057617 C14.9509082 3.34057617 4.7209082 3.34057617 -5.8190918 3.34057617 C-2.8190918 0.34057617 -2.8190918 0.34057617 0 0 Z " fill="#E4E5E6" transform="translate(445.819091796875,529.659423828125)"/>
<path d="M0 0 C2 2 2 2 2.1953125 4.3828125 C2.17210937 5.28773438 2.14890625 6.19265625 2.125 7.125 C2.10695313 8.03507812 2.08890625 8.94515625 2.0703125 9.8828125 C2.04710937 10.58148438 2.02390625 11.28015625 2 12 C2.66 12.33 3.32 12.66 4 13 C3.34 13.66 2.68 14.32 2 15 C1.3162955 16.32467746 0.65035814 17.65863633 0 19 C-0.66 19.99 -1.32 20.98 -2 22 C-2.99 22 -3.98 22 -5 22 C-5.268125 22.639375 -5.53625 23.27875 -5.8125 23.9375 C-7 26 -7 26 -10 27 C-10 26.34 -10 25.68 -10 25 C-8.33333333 23.33333333 -6.66666667 21.66666667 -5 20 C-1.10293315 14.695659 0.14811564 11.25678871 0.0625 4.75 C0.05347656 3.85796875 0.04445313 2.9659375 0.03515625 2.046875 C0.02355469 1.37140625 0.01195312 0.6959375 0 0 Z " fill="#111A28" transform="translate(803,449)"/>
<path d="M0 0 C0.66 0.33 1.32 0.66 2 1 C0.7934375 2.11375 0.7934375 2.11375 -0.4375 3.25 C-2.96838147 5.96606792 -3.22071002 6.66018578 -4 10 C-5.625 11.4375 -5.625 11.4375 -8 13 C-9.25249791 13.89233757 -10.50235609 14.7883882 -11.75 15.6875 C-12.8225 16.450625 -13.895 17.21375 -15 18 C-13.66465724 15.05886531 -12.17535119 12.89154831 -9.9609375 10.546875 C-9.38085938 9.928125 -8.80078125 9.309375 -8.203125 8.671875 C-7.59984375 8.03765625 -6.9965625 7.4034375 -6.375 6.75 C-5.76398438 6.1003125 -5.15296875 5.450625 -4.5234375 4.78125 C-3.01971926 3.18354937 -1.51184263 1.59000851 0 0 Z " fill="#172230" transform="translate(299,194)"/>
<path d="M0 0 C0 0.66 0 1.32 0 2 C-8.35263176 2.95458649 -16.59784035 3.11039334 -25 3 C-25 2.67 -25 2.34 -25 2 C-21.773025 1.4649366 -18.54320875 0.94949467 -15.3125 0.4375 C-14.40048828 0.28603516 -13.48847656 0.13457031 -12.54882812 -0.02148438 C-11.66259766 -0.16005859 -10.77636719 -0.29863281 -9.86328125 -0.44140625 C-8.64572144 -0.63778687 -8.64572144 -0.63778687 -7.40356445 -0.83813477 C-4.75437143 -1.01654157 -2.57036819 -0.62608968 0 0 Z " fill="#15202E" transform="translate(633,461)"/>
<path d="M0 0 C0.66 0.33 1.32 0.66 2 1 C-0.06964176 3.03674283 -2.15359702 5.05363419 -4.25 7.0625 C-5.12978516 7.93358398 -5.12978516 7.93358398 -6.02734375 8.82226562 C-6.60097656 9.36689453 -7.17460937 9.91152344 -7.765625 10.47265625 C-8.28930664 10.98062744 -8.81298828 11.48859863 -9.35253906 12.01196289 C-11 13 -11 13 -13.20214844 12.65795898 C-13.79543945 12.44083252 -14.38873047 12.22370605 -15 12 C-13.59290434 10.51172574 -12.17393799 9.03466815 -10.75 7.5625 C-9.96109375 6.73878906 -9.1721875 5.91507813 -8.359375 5.06640625 C-6.02225795 3.01949413 -4.94775692 2.54798045 -2 2 C-1.34 1.34 -0.68 0.68 0 0 Z " fill="#142639" transform="translate(317,180)"/>
<path d="M0 0 C-2.84971858 1.57571723 -5.25553959 2.34823995 -8.4765625 2.78125 C-9.311875 2.90113281 -10.1471875 3.02101563 -11.0078125 3.14453125 C-12.76027547 3.38255234 -14.51288148 3.61952251 -16.265625 3.85546875 C-17.09835937 3.97535156 -17.93109375 4.09523438 -18.7890625 4.21875 C-19.54912598 4.32123047 -20.30918945 4.42371094 -21.09228516 4.52929688 C-23.22610998 4.88135729 -23.22610998 4.88135729 -25 7 C-25.66 6.01 -26.32 5.02 -27 4 C-23.46274682 1.64183121 -20.42332134 1.33553279 -16.3125 0.875 C-15.62994141 0.78863281 -14.94738281 0.70226562 -14.24414062 0.61328125 C-9.46834599 0.04505639 -4.80836821 -0.07555236 0 0 Z " fill="#131B27" transform="translate(656,522)"/>
<path d="M0 0 C0.73605469 0.00451172 1.47210938 0.00902344 2.23046875 0.01367188 C4.02868158 0.02534858 5.82685197 0.04327989 7.625 0.0625 C7.955 1.0525 8.285 2.0425 8.625 3.0625 C1.035 3.0625 -6.555 3.0625 -14.375 3.0625 C-14.375 2.4025 -14.375 1.7425 -14.375 1.0625 C-9.51770355 0.08950844 -4.9249375 -0.05788805 0 0 Z " fill="#2B3F54" transform="translate(444.375,467.9375)"/>
<path d="M0 0 C2.80435411 -0.05632424 5.35146678 0.04185298 8.125 0.3125 C9.25615234 0.4043457 9.25615234 0.4043457 10.41015625 0.49804688 C12.27463438 0.6514533 14.13752498 0.82393459 16 1 C15.01 2.485 15.01 2.485 14 4 C12.08203125 4.328125 12.08203125 4.328125 9.8125 4.25 C8.61753906 4.21132813 8.61753906 4.21132813 7.3984375 4.171875 C4.22350005 3.94435505 1.13785808 3.5341035 -2 3 C-1.34 2.01 -0.68 1.02 0 0 Z " fill="#DEE0E1" transform="translate(408,595)"/>
<path d="M0 0 C0.06058594 0.62648438 0.12117188 1.25296875 0.18359375 1.8984375 C0.26738281 2.71570313 0.35117187 3.53296875 0.4375 4.375 C0.55931641 5.59316406 0.55931641 5.59316406 0.68359375 6.8359375 C0.89090114 9.04272805 0.89090114 9.04272805 2 11 C7.94 11.33 13.88 11.66 20 12 C20 12.33 20 12.66 20 13 C16.89614789 13.11613204 13.79285338 13.18722029 10.6875 13.25 C9.80642578 13.28351562 8.92535156 13.31703125 8.01757812 13.3515625 C1.50293451 13.45064453 1.50293451 13.45064453 -1.06640625 11.1484375 C-2.10005203 8.76975475 -2.59618309 6.55750712 -3 4 C-3.33 3.34 -3.66 2.68 -4 2 C-1 0 -1 0 0 0 Z " fill="#FDFDFD" transform="translate(412,804)"/>
<path d="M0 0 C0.99 0.33 1.98 0.66 3 1 C3 4.63 3 8.26 3 12 C9.27 12 15.54 12 22 12 C22 12.33 22 12.66 22 13 C15.4 13 8.8 13 2 13 C0.79727181 10.59454362 0.89928528 9.05003047 0.9375 6.375 C0.94652344 5.55773437 0.95554687 4.74046875 0.96484375 3.8984375 C0.97644531 3.27195312 0.98804688 2.64546875 1 2 C0.34 1.67 -0.32 1.34 -1 1 C-0.67 0.67 -0.34 0.34 0 0 Z " fill="#050D19" transform="translate(411,802)"/>
<path d="M0 0 C8.58 0 17.16 0 26 0 C26 0.33 26 0.66 26 1 C21.29538677 2.86132673 17.1242304 3.2509496 12.125 3.125 C11.43664062 3.11597656 10.74828125 3.10695313 10.0390625 3.09765625 C8.35922162 3.07432513 6.67956254 3.03846326 5 3 C5 2.67 5 2.34 5 2 C3.35 1.67 1.7 1.34 0 1 C0 0.67 0 0.34 0 0 Z " fill="#E2E3E4" transform="translate(447,466)"/>
<path d="M0 0 C0.66 0.33 1.32 0.66 2 1 C1.52517262 5.27344643 -0.99204637 7.13528225 -4 10 C-6.38754923 12.82968797 -7.74299146 15.51905327 -9 19 C-9.66796875 17.30859375 -9.66796875 17.30859375 -10 15 C-8.92578125 12.59765625 -8.92578125 12.59765625 -7.3125 10.0625 C-6.75949219 9.18980469 -6.20648438 8.31710937 -5.63671875 7.41796875 C-3.88361356 4.82805917 -2.04890919 2.36412599 0 0 Z " fill="#101C2C" transform="translate(163,427)"/>
<path d="M0 0 C5.68502535 1.64566523 10.76681636 4.29032784 16 7 C16 7.66 16 8.32 16 9 C10.65155992 8.46515599 6.64203897 6.53309233 2 4 C2 3.34 2 2.68 2 2 C1.34 2 0.68 2 0 2 C0 1.34 0 0.68 0 0 Z " fill="#E6E7E8" transform="translate(597,166)"/>
<path d="M0 0 C9.9 0.33 19.8 0.66 30 1 C30 3.31 30 5.62 30 8 C29.67 8 29.34 8 29 8 C29 6.02 29 4.04 29 2 C19.76 2.33 10.52 2.66 1 3 C0.67 2.01 0.34 1.02 0 0 Z " fill="#E3E3E1" transform="translate(377,763)"/>
<path d="M0 0 C1.2375 0.00386719 2.475 0.00773438 3.75 0.01171875 C7 0.3125 7 0.3125 10 2.3125 C9 3.3125 9 3.3125 7.14233398 3.42602539 C6.35157471 3.42078857 5.56081543 3.41555176 4.74609375 3.41015625 C3.89208984 3.40693359 3.03808594 3.40371094 2.15820312 3.40039062 C1.26037109 3.39201172 0.36253906 3.38363281 -0.5625 3.375 C-1.46419922 3.37048828 -2.36589844 3.36597656 -3.29492188 3.36132812 C-5.53001314 3.34950225 -7.76497437 3.3330222 -10 3.3125 C-6.87969038 -0.2419039 -4.70882068 -0.06376528 0 0 Z " fill="#E2E4E4" transform="translate(514,598.6875)"/>
<path d="M0 0 C4.29 0.66 8.58 1.32 13 2 C11.02 2.99 11.02 2.99 9 4 C11.97 5.65 14.94 7.3 18 9 C15 10 15 10 11.6796875 8.41796875 C10.40533832 7.68501844 9.13728125 6.94104365 7.875 6.1875 C7.22917969 5.81818359 6.58335937 5.44886719 5.91796875 5.06835938 C1.13908679 2.27817358 1.13908679 2.27817358 0 0 Z " fill="#D4D9DD" transform="translate(294,538)"/>
<path d="M0 0 C1.07765625 0.00902344 2.1553125 0.01804687 3.265625 0.02734375 C4.08546875 0.03894531 4.9053125 0.05054688 5.75 0.0625 C6.08 1.0525 6.41 2.0425 6.75 3.0625 C4.47942623 3.11648987 2.20848712 3.15528742 -0.0625 3.1875 C-1.95935547 3.22230469 -1.95935547 3.22230469 -3.89453125 3.2578125 C-7.25 3.0625 -7.25 3.0625 -10.25 1.0625 C-6.78777385 -0.00473961 -3.60960734 -0.03923486 0 0 Z " fill="#E2E3E3" transform="translate(517.25,789.9375)"/>
<path d="M0 0 C0.66 0.33 1.32 0.66 2 1 C1.34 1.66 0.68 2.32 0 3 C-0.70710678 4.64991582 -1.37943989 6.31562256 -2 8 C-2.66 8 -3.32 8 -4 8 C-4.66 12.29 -5.32 16.58 -6 21 C-6.33 21 -6.66 21 -7 21 C-7.61373046 13.38974231 -6.03839096 8.47366308 -2 2 C-1.34 1.34 -0.68 0.68 0 0 Z " fill="#0A1321" transform="translate(343,758)"/>
<path d="M0 0 C0 0.66 0 1.32 0 2 C0.66 2 1.32 2 2 2 C2 2.66 2 3.32 2 4 C-3.94 3.01 -9.88 2.02 -16 1 C-16 0.67 -16 0.34 -16 0 C-10.68833136 -1.32791716 -5.24118425 -1.74706142 0 0 Z " fill="#DDE0E2" transform="translate(414,695)"/>
<path d="M0 0 C-2.92324707 1.94883138 -4.51083018 2.48079727 -7.875 3.125 C-8.71804688 3.29257813 -9.56109375 3.46015625 -10.4296875 3.6328125 C-12.99151915 3.99878845 -15.41609989 4.06482904 -18 4 C-12.39511579 0.26341053 -6.68080185 -1.88432873 0 0 Z " fill="#E6E7E8" transform="translate(413,155)"/>
<path d="M0 0 C-0.33 0.99 -0.66 1.98 -1 3 C-7.93 2.67 -14.86 2.34 -22 2 C-22 1.67 -22 1.34 -22 1 C-14.63512596 0.00137301 -7.42686315 -0.10331031 0 0 Z " fill="#1F374F" transform="translate(587,489)"/>
<path d="M0 0 C0 0.99 0 1.98 0 3 C-2.64 3 -5.28 3 -8 3 C-8 3.66 -8 4.32 -8 5 C-11.63 5 -15.26 5 -19 5 C-19 4.67 -19 4.34 -19 4 C-17.35 3.67 -15.7 3.34 -14 3 C-14 2.67 -14 2.34 -14 2 C-12.04200486 1.66468585 -10.08359226 1.33180857 -8.125 1 C-6.48917969 0.7215625 -6.48917969 0.7215625 -4.8203125 0.4375 C-2 0 -2 0 0 0 Z " fill="#E1E3E4" transform="translate(391,814)"/>
<path d="M0 0 C2.34038868 0.94558107 3.71352888 1.51613034 5.02075195 3.72412109 C5.25753662 4.40039551 5.49432129 5.07666992 5.73828125 5.7734375 C6.00060547 6.5159375 6.26292969 7.2584375 6.53320312 8.0234375 C6.79037109 8.79945313 7.04753906 9.57546875 7.3125 10.375 C7.58900391 11.14328125 7.86550781 11.9115625 8.15039062 12.703125 C10.30530445 18.97788667 10.30530445 18.97788667 9 23 C7.99513105 20.04329782 6.99693976 17.08438423 6 14.125 C5.71382812 13.28324219 5.42765625 12.44148437 5.1328125 11.57421875 C4.86210938 10.76855469 4.59140625 9.96289062 4.3125 9.1328125 C4.06113281 8.38918457 3.80976562 7.64555664 3.55078125 6.87939453 C3 5 3 5 3 3 C2.01 2.67 1.02 2.34 0 2 C0 1.34 0 0.68 0 0 Z " fill="#0E44E3" transform="translate(644,686)"/>
<path d="M0 0 C2.08304538 -0.05418326 4.16649768 -0.09287551 6.25 -0.125 C7.99023438 -0.15980469 7.99023438 -0.15980469 9.765625 -0.1953125 C12.82786046 -0.0103949 14.44202751 0.39176977 17 2 C13.24600202 3.2039337 9.66782588 3.09877617 5.75 3.0625 C4.48671875 3.05347656 3.2234375 3.04445313 1.921875 3.03515625 C0.95765625 3.02355469 -0.0065625 3.01195312 -1 3 C-0.67 2.01 -0.34 1.02 0 0 Z " fill="#E3E3E4" transform="translate(420,529)"/>
<path d="M0 0 C0 0.99 0 1.98 0 3 C-0.680625 3.103125 -1.36125 3.20625 -2.0625 3.3125 C-5.18585101 3.94520213 -5.18585101 3.94520213 -8.625 5.625 C-12 7 -12 7 -15 6 C-12.60156648 3.17412288 -10.47839022 2.29810862 -6.9375 1.3125 C-6.05964844 1.06113281 -5.18179688 0.80976562 -4.27734375 0.55078125 C-2 0 -2 0 0 0 Z " fill="#E6E7E8" transform="translate(741,524)"/>
<path d="M0 0 C1.06347656 0.00386719 2.12695312 0.00773437 3.22265625 0.01171875 C5.9375 0.3125 5.9375 0.3125 7.9375 2.3125 C6.9375 3.3125 6.9375 3.3125 3.33984375 3.41015625 C1.85153133 3.4034822 0.36323568 3.39152183 -1.125 3.375 C-1.88361328 3.37048828 -2.64222656 3.36597656 -3.42382812 3.36132812 C-5.30341871 3.3495068 -7.18296899 3.33157078 -9.0625 3.3125 C-6.43897626 -0.15201393 -4.19734485 -0.06630071 0 0 Z " fill="#E4E5E6" transform="translate(545.0625,493.6875)"/>
<path d="M0 0 C0.33 0 0.66 0 1 0 C1.33 2.97 1.66 5.94 2 9 C2.33 9 2.66 9 3 9 C3 11.97 3 14.94 3 18 C1.68 18.33 0.36 18.66 -1 19 C-1.33 18.01 -1.66 17.02 -2 16 C-1.34 16 -0.68 16 0 16 C0 10.72 0 5.44 0 0 Z " fill="#E2E3E3" transform="translate(214,379)"/>
<path d="M0 0 C6.27 0 12.54 0 19 0 C18.67 0.99 18.34 1.98 18 3 C14.37 3 10.74 3 7 3 C7 2.34 7 1.68 7 1 C4.69 1 2.38 1 0 1 C0 0.67 0 0.34 0 0 Z " fill="#E3E4E6" transform="translate(491,143)"/>
<path d="M0 0 C4.9723422 1.49170266 9.41845739 3.60457417 14 6 C13.34 6.66 12.68 7.32 12 8 C10.02 7.34 8.04 6.68 6 6 C6 5.34 6 4.68 6 4 C4.35 3.67 2.7 3.34 1 3 C0.67 2.01 0.34 1.02 0 0 Z " fill="#E1E2E4" transform="translate(188,505)"/>
<path d="M0 0 C0.66 0.33 1.32 0.66 2 1 C-0.7798899 5.28566359 -3.36848407 6.89846089 -8 8.6171875 C-10.30942057 9.05922503 -11.78436006 8.72206123 -14 8 C-13.15695312 7.59007812 -12.31390625 7.18015625 -11.4453125 6.7578125 C-10.34960938 6.21898437 -9.25390625 5.68015625 -8.125 5.125 C-6.48917969 4.32449219 -6.48917969 4.32449219 -4.8203125 3.5078125 C-1.96117453 2.15464063 -1.96117453 2.15464063 0 0 Z " fill="#111926" transform="translate(405,786)"/>
<path d="M0 0 C0.33 0 0.66 0 1 0 C1.125 6.75 1.125 6.75 0 9 C0.66 9 1.32 9 2 9 C2 11.64 2 14.28 2 17 C1.01 17 0.02 17 -1 17 C-1.02709444 14.91673869 -1.04643873 12.83337559 -1.0625 10.75 C-1.07410156 9.58984375 -1.08570313 8.4296875 -1.09765625 7.234375 C-1.01782092 4.59022872 -0.78643778 2.50173909 0 0 Z " fill="#E5E6E5" transform="translate(757,351)"/>
<path d="M0 0 C0.33 0 0.66 0 1 0 C2.2019586 6.22833095 1.93161919 9.37129115 -1 15 C-1.99 14.34 -2.98 13.68 -4 13 C-3.525625 11.96875 -3.05125 10.9375 -2.5625 9.875 C-1.15477612 6.61465838 -0.43164502 3.53948917 0 0 Z " fill="#E6E7E8" transform="translate(823,460)"/>
<path d="M0 0 C-1 2 -1 2 -3.625 3.125 C-7.21810788 4.05654649 -10.30415624 4.14783375 -14 4 C-14 3.01 -14 2.02 -14 1 C-4.58997722 -0.14806378 -4.58997722 -0.14806378 0 0 Z " fill="#DFE1E2" transform="translate(567,595)"/>
<path d="M0 0 C-2.97818634 0.88099735 -5.45292865 1.06705164 -8.546875 0.87890625 C-9.39121094 0.83056641 -10.23554687 0.78222656 -11.10546875 0.73242188 C-11.97816406 0.67634766 -12.85085938 0.62027344 -13.75 0.5625 C-14.63816406 0.51029297 -15.52632812 0.45808594 -16.44140625 0.40429688 C-18.62799196 0.27498267 -20.81407894 0.14003358 -23 0 C-23 -0.33 -23 -0.66 -23 -1 C-19.91772291 -1.22655901 -16.8342984 -1.42803465 -13.75 -1.625 C-12.87730469 -1.68945312 -12.00460937 -1.75390625 -11.10546875 -1.8203125 C-10.26113281 -1.871875 -9.41679688 -1.9234375 -8.546875 -1.9765625 C-7.77182617 -2.02893066 -6.99677734 -2.08129883 -6.19824219 -2.13525391 C-3.69195763 -1.9810467 -2.15160127 -1.25581508 0 0 Z " fill="#E5E8E8" transform="translate(774,823)"/>
<path d="M0 0 C1.00058075 3.00174224 1.31241431 4.87585686 1 8 C-0.1875 9.8125 -0.1875 9.8125 -2 11 C-4.6875 11.1875 -4.6875 11.1875 -7 11 C-5.68 10.67 -4.36 10.34 -3 10 C-2.86722656 9.36191406 -2.73445312 8.72382812 -2.59765625 8.06640625 C-2.42105469 7.24011719 -2.24445312 6.41382813 -2.0625 5.5625 C-1.88847656 4.73878906 -1.71445312 3.91507813 -1.53515625 3.06640625 C-1 1 -1 1 0 0 Z " fill="#095FEA" transform="translate(593,780)"/>
<path d="M0 0 C0 2.31 0 4.62 0 7 C-0.33 7 -0.66 7 -1 7 C-1.33 8.65 -1.66 10.3 -2 12 C-2.33 12 -2.66 12 -3 12 C-3 9.03 -3 6.06 -3 3 C-3.99 2.67 -4.98 2.34 -6 2 C-2.25 0 -2.25 0 0 0 Z " fill="#DFE1E2" transform="translate(217,418)"/>
<path d="M0 0 C5.67853635 1.41963409 9.53174216 4.39363961 14 8 C10.10496582 8 7.22428724 7.17719927 4.375 4.4375 C3.694375 3.7259375 3.694375 3.7259375 3 3 C2.01 2.67 1.02 2.34 0 2 C0 1.34 0 0.68 0 0 Z " fill="#114CE5" transform="translate(775,646)"/>
<path d="M0 0 C2.3828125 -0.29296875 2.3828125 -0.29296875 5.125 -0.1875 C6.03507812 -0.16042969 6.94515625 -0.13335938 7.8828125 -0.10546875 C8.58148438 -0.07066406 9.28015625 -0.03585937 10 0 C10 0.99 10 1.98 10 3 C6.04 3 2.08 3 -2 3 C-1.34 2.01 -0.68 1.02 0 0 Z " fill="#E0E2E3" transform="translate(391,527)"/>
<path d="M0 0 C3.3 0 6.6 0 10 0 C10 0.99 10 1.98 10 3 C6.7 3 3.4 3 0 3 C0 2.01 0 1.02 0 0 Z " fill="#2D3B4C" transform="translate(551,467)"/>
<path d="M0 0 C0.33 0 0.66 0 1 0 C1.33 4.62 1.66 9.24 2 14 C1.01 14 0.02 14 -1 14 C-2.4783226 11.04335481 -2.06032783 8.25770263 -2 5 C-1.67 5 -1.34 5 -1 5 C-0.67 3.35 -0.34 1.7 0 0 Z " fill="#CBCED2" transform="translate(150,452)"/>
<path d="M0 0 C1.98 0.66 3.96 1.32 6 2 C6 2.66 6 3.32 6 4 C8.475 4.99 8.475 4.99 11 6 C10.67 6.66 10.34 7.32 10 8 C6.7 6.35 3.4 4.7 0 3 C0 2.01 0 1.02 0 0 Z " fill="#DFE1E3" transform="translate(773,400)"/>
<path d="M0 0 C0.99 0 1.98 0 3 0 C6.07692308 5.41538462 6.07692308 5.41538462 5.6875 8.375 C5.460625 8.91125 5.23375 9.4475 5 10 C2.35534962 6.8745041 1.15585285 3.91211733 0 0 Z " fill="#E1E3E3" transform="translate(726,262)"/>
<path d="M0 0 C0.66 0.33 1.32 0.66 2 1 C-1.63 4.63 -5.26 8.26 -9 12 C-9 7.8407692 -6.75316432 5.85455565 -4 3 C-1.6875 1.125 -1.6875 1.125 0 0 Z " fill="#1B3650" transform="translate(461,66)"/>
<path d="M0 0 C0.99 0 1.98 0 3 0 C3 4.95 3 9.9 3 15 C2.67 15 2.34 15 2 15 C2 12.69 2 10.38 2 8 C1.34 8 0.68 8 0 8 C0 5.36 0 2.72 0 0 Z " fill="#253850" transform="translate(335,774)"/>
<path d="M0 0 C4.25227508 1.41742503 5.85663896 4.16533225 8 8 C8.8125 11.4375 8.8125 11.4375 9 14 C5.60089906 9.58116878 2.34329495 5.07713906 0 0 Z " fill="#0D42E3" transform="translate(755,698)"/>
<path d="M0 0 C0.91007812 0.00902344 1.82015625 0.01804687 2.7578125 0.02734375 C3.45648438 0.03894531 4.15515625 0.05054688 4.875 0.0625 C5.205 1.0525 5.535 2.0425 5.875 3.0625 C4.27120659 3.11666188 2.66688594 3.15536638 1.0625 3.1875 C0.16917969 3.21070313 -0.72414063 3.23390625 -1.64453125 3.2578125 C-4.125 3.0625 -4.125 3.0625 -7.125 1.0625 C-4.60024538 -0.19987731 -2.81299534 -0.03606404 0 0 Z " fill="#E3E5E6" transform="translate(416.125,492.9375)"/>
<path d="M0 0 C0.66 0 1.32 0 2 0 C6 6.75 6 6.75 6 9 C2.7 9 -0.6 9 -4 9 C-4 8.67 -4 8.34 -4 8 C-2.02 7.67 -0.04 7.34 2 7 C1.34 4.69 0.68 2.38 0 0 Z " fill="#FAFCFB" transform="translate(443,116)"/>
<path d="M0 0 C0 0.33 0 0.66 0 1 C-10.55808656 2.33257403 -10.55808656 2.33257403 -15 1 C-15 0.67 -15 0.34 -15 0 C-9.77254141 -1.2063366 -5.23471686 -0.75612577 0 0 Z " fill="#DDDFE0" transform="translate(363,723)"/>
<path d="M0 0 C2.64 0.33 5.28 0.66 8 1 C8 1.99 8 2.98 8 4 C5.03 3.67 2.06 3.34 -1 3 C-0.67 2.01 -0.34 1.02 0 0 Z " fill="#E2E3E3" transform="translate(310,451)"/>
<path d="M0 0 C0.66 0.33 1.32 0.66 2 1 C2.4140625 3.06640625 2.4140625 3.06640625 2.625 5.5625 C2.69976563 6.38878906 2.77453125 7.21507812 2.8515625 8.06640625 C2.92503906 9.02353516 2.92503906 9.02353516 3 10 C2.01 10.33 1.02 10.66 0 11 C-0.19406478 9.35492782 -0.38007935 7.70890406 -0.5625 6.0625 C-0.66691406 5.14597656 -0.77132812 4.22945313 -0.87890625 3.28515625 C-0.91886719 2.53105469 -0.95882812 1.77695312 -1 1 C-0.67 0.67 -0.34 0.34 0 0 Z " fill="#E1E3E4" transform="translate(754,340)"/>
<path d="M0 0 C4.455 1.98 4.455 1.98 9 4 C8.67 4.99 8.34 5.98 8 7 C5.36 5.68 2.72 4.36 0 3 C0 2.01 0 1.02 0 0 Z " fill="#E4E5E6" transform="translate(290,561)"/>
<path d="M0 0 C0.99 0 1.98 0 3 0 C2.29445932 3.66881155 0.72264494 6.70450534 -1 10 C-2.27351308 7.45297384 -1.80191925 6.5717055 -1.0625 3.875 C-0.86785156 3.15054687 -0.67320312 2.42609375 -0.47265625 1.6796875 C-0.31667969 1.12539063 -0.16070312 0.57109375 0 0 Z " fill="#DEDFE0" transform="translate(246,324)"/>
<path d="M0 0 C0 3.58912412 -0.66436554 4.10857029 -3 6.6875 C-3.556875 7.31011719 -4.11375 7.93273437 -4.6875 8.57421875 C-5.120625 9.04472656 -5.55375 9.51523438 -6 10 C-6.66 9.67 -7.32 9.34 -8 9 C-7.75 7.125 -7.75 7.125 -7 5 C-5.125 3.9375 -5.125 3.9375 -3 3 C-1.29078411 1.4587688 -1.29078411 1.4587688 0 0 Z " fill="#1F374F" transform="translate(290,206)"/>
<path d="M0 0 C0.33 3.3 0.66 6.6 1 10 C0.01 9.67 -0.98 9.34 -2 9 C-2.144375 8.21625 -2.28875 7.4325 -2.4375 6.625 C-2.87798925 4.03578982 -2.87798925 4.03578982 -4 2 C-1 0 -1 0 0 0 Z " fill="#F5F6F6" transform="translate(412,804)"/>
<path d="M0 0 C-0.33 0.99 -0.66 1.98 -1 3 C-3.97 3 -6.94 3 -10 3 C-10 2.34 -10 1.68 -10 1 C-6.78548731 -0.60725635 -3.56387464 -0.05748185 0 0 Z " fill="#E2E3E5" transform="translate(447,598)"/>
<path d="M0 0 C0.33 0.66 0.66 1.32 1 2 C-0.4726862 5.27263601 -1.42695432 6.72014048 -4.6875 8.3125 C-5.450625 8.539375 -6.21375 8.76625 -7 9 C-6.02180976 7.68677212 -5.0424189 6.37443848 -4.0625 5.0625 C-3.51722656 4.33160156 -2.97195313 3.60070312 -2.41015625 2.84765625 C-1 1 -1 1 0 0 Z " fill="#0D1827" transform="translate(282,213)"/>
<path d="M0 0 C0.66 0.33 1.32 0.66 2 1 C2.625 3.5625 2.625 3.5625 3 6 C1.68 6 0.36 6 -1 6 C-1 6.66 -1 7.32 -1 8 C-1.66 7.67 -2.32 7.34 -3 7 C-2.01 4.69 -1.02 2.38 0 0 Z " fill="#E5F2ED" transform="translate(636,719)"/>
<path d="M0 0 C2.64 0 5.28 0 8 0 C8 0.66 8 1.32 8 2 C6.02 2.66 4.04 3.32 2 4 C1.34 3.34 0.68 2.68 0 2 C0 1.34 0 0.68 0 0 Z " fill="#ADB6BE" transform="translate(668,539)"/>
<path d="M0 0 C0 0.66 0 1.32 0 2 C-2.75 2.6875 -2.75 2.6875 -6 3 C-8.375 1.5625 -8.375 1.5625 -10 0 C-6.33694766 -0.74926071 -3.57644848 -1.2380014 0 0 Z " fill="#A6AEB8" transform="translate(311,541)"/>
<path d="M0 0 C1.32 0.33 2.64 0.66 4 1 C4 1.66 4 2.32 4 3 C0.7 3.33 -2.6 3.66 -6 4 C-5.67 3.01 -5.34 2.02 -5 1 C-3.35 1.33 -1.7 1.66 0 2 C0 1.34 0 0.68 0 0 Z " fill="#E3E4E5" transform="translate(427,125)"/>
<path d="M0 0 C1.27875 -0.061875 2.5575 -0.12375 3.875 -0.1875 C4.95394531 -0.23970703 4.95394531 -0.23970703 6.0546875 -0.29296875 C6.69664062 -0.19628906 7.33859375 -0.09960938 8 0 C8.66 0.99 9.32 1.98 10 3 C7.36 3 4.72 3 2 3 C2 2.34 2 1.68 2 1 C1.34 0.67 0.68 0.34 0 0 Z " fill="#A6AEB7" transform="translate(535,574)"/>
<path d="M0 0 C2.97 0 5.94 0 9 0 C8.01 0.495 8.01 0.495 7 1 C7 1.66 7 2.32 7 3 C4.36 3 1.72 3 -1 3 C-0.67 2.01 -0.34 1.02 0 0 Z " fill="#E4E5E6" transform="translate(586,491)"/>
<path d="M0 0 C3.67230705 3.07999946 4.56802365 5.2482602 5 10 C4.01 9.67 3.02 9.34 2 9 C1.855625 8.2575 1.71125 7.515 1.5625 6.75 C1.09812508 4.47972261 0.58136431 2.24240521 0 0 Z " fill="#F3F3F3" transform="translate(798,444)"/>
<path d="M0 0 C-3.96 1.98 -3.96 1.98 -8 4 C-8.99 3.34 -9.98 2.68 -11 2 C-9.68 2 -8.36 2 -7 2 C-7 1.34 -7 0.68 -7 0 C-3.98968256 -0.93423645 -3.13349732 -1.04449911 0 0 Z " fill="#E2E3E4" transform="translate(721,435)"/>
<path d="M0 0 C0.99 0 1.98 0 3 0 C3 2.64 3 5.28 3 8 C2.01 8 1.02 8 0 8 C0 5.36 0 2.72 0 0 Z " fill="#E2E4E4" transform="translate(238,368)"/>
<path d="M0 0 C0.99 0.66 1.98 1.32 3 2 C0.36 4.64 -2.28 7.28 -5 10 C-5 6.07176899 -3.48245551 4.93381106 -1 2 C-0.67 1.34 -0.34 0.68 0 0 Z " fill="#1F374E" transform="translate(301,192)"/>
<path d="M0 0 C-0.33 0.66 -0.66 1.32 -1 2 C-4.4375 2.75 -4.4375 2.75 -8 3 C-8.66 2.34 -9.32 1.68 -10 1 C-3.375 -1.125 -3.375 -1.125 0 0 Z " fill="#E4E6E7" transform="translate(640,581)"/>
<path d="M0 0 C3.63 0.33 7.26 0.66 11 1 C11 1.33 11 1.66 11 2 C7.37 2.33 3.74 2.66 0 3 C0 2.01 0 1.02 0 0 Z " fill="#A7B0B9" transform="translate(656,541)"/>
<path d="M0 0 C0.78375 0.04125 1.5675 0.0825 2.375 0.125 C2.375 0.785 2.375 1.445 2.375 2.125 C3.365 2.125 4.355 2.125 5.375 2.125 C5.375 2.785 5.375 3.445 5.375 4.125 C2.075 3.465 -1.225 2.805 -4.625 2.125 C-2.625 0.125 -2.625 0.125 0 0 Z " fill="#E0E1E4" transform="translate(257.625,505.875)"/>
<path d="M0 0 C0.99 0.33 1.98 0.66 3 1 C3 3.64 3 6.28 3 9 C2.34 9 1.68 9 1 9 C0.67 6.03 0.34 3.06 0 0 Z " fill="#273B50" transform="translate(218,359)"/>
<path d="M0 0 C1.32 0.33 2.64 0.66 4 1 C4 1.66 4 2.32 4 3 C2.1875 4.6875 2.1875 4.6875 0 6 C-0.99 5.67 -1.98 5.34 -3 5 C-2.01 3.35 -1.02 1.7 0 0 Z " fill="#DFE9E9" transform="translate(792,828)"/>
<path d="M0 0 C2.64 0 5.28 0 8 0 C7.67 0.99 7.34 1.98 7 3 C4.69 3 2.38 3 0 3 C0 2.01 0 1.02 0 0 Z " fill="#9FAAB4" transform="translate(384,550)"/>
<path d="M0 0 C-3.96 1.98 -3.96 1.98 -8 4 C-8.33 2.68 -8.66 1.36 -9 0 C-3.375 -1.125 -3.375 -1.125 0 0 Z " fill="#C3CAD0" transform="translate(684,538)"/>
<path d="M0 0 C1.98 0 3.96 0 6 0 C6 0.99 6 1.98 6 3 C4.02 3 2.04 3 0 3 C0 2.01 0 1.02 0 0 Z " fill="#E1E3E4" transform="translate(342,457)"/>
<path d="M0 0 C0.33 0.99 0.66 1.98 1 3 C-2.3 2.67 -5.6 2.34 -9 2 C-5.23312136 0.11656068 -3.97041037 -0.22057835 0 0 Z " fill="#E0E1E1" transform="translate(371,694)"/>
<path d="M0 0 C4.92307692 4.30769231 4.92307692 4.30769231 5.3125 7.8125 C5.209375 8.534375 5.10625 9.25625 5 10 C2.35534962 6.8745041 1.15585285 3.91211733 0 0 Z " fill="#F5F4F5" transform="translate(251,673)"/>
<path d="M0 0 C3.3 0 6.6 0 10 0 C8.68 0.33 7.36 0.66 6 1 C6 1.66 6 2.32 6 3 C3.13275314 2.42655063 2.1385485 2.1385485 0 0 Z " fill="#DBDEE0" transform="translate(628,486)"/>
<path d="M0 0 C1.670625 0.061875 1.670625 0.061875 3.375 0.125 C3.375 1.115 3.375 2.105 3.375 3.125 C0.405 2.795 -2.565 2.465 -5.625 2.125 C-3.625 0.125 -3.625 0.125 0 0 Z " fill="#E5E6E6" transform="translate(321.625,481.875)"/>
<path d="M0 0 C1.875 0.25 1.875 0.25 4 1 C5.25 3.0625 5.25 3.0625 6 5 C3 5 3 5 1.3125 3.625 C0 2 0 2 0 0 Z " fill="#E4E6E7" transform="translate(177,470)"/>
<path d="M0 0 C0.66 0.33 1.32 0.66 2 1 C0.29374499 3.78388975 -0.47626739 4.85384206 -3.6875 5.75 C-4.8321875 5.87375 -4.8321875 5.87375 -6 6 C-4 4 -2 2 0 0 Z " fill="#0B1622" transform="translate(328,170)"/>
<path d="M0 0 C1.32 0 2.64 0 4 0 C4 0.66 4 1.32 4 2 C5.32 2.66 6.64 3.32 8 4 C7.01 4.495 7.01 4.495 6 5 C3.96855359 4.06553465 1.96466413 3.06775224 0 2 C0 1.34 0 0.68 0 0 Z " fill="#E2E4E5" transform="translate(611,148)"/>
</svg>
